<?xml version="1.0" encoding="utf-8"?>
<!-- Generator: Adobe Illustrator 24.1.0, SVG Export Plug-In . SVG Version: 6.00 Build 0)  -->
<svg version="1.1" id="Layer_1" xmlns="http://www.w3.org/2000/svg" xmlns:xlink="http://www.w3.org/1999/xlink" x="0px" y="0px"
	 viewBox="0 0 150 58" style="enable-background:new 0 0 150 58;" xml:space="preserve">
<style type="text/css">
	.st0{fill:#3AAC59;}
</style>
<g>
	<path class="st0" d="M94.1,12.6L94.1,12.6c0.1,1.1,1.3,1.6,2.1,0.9c2.3-1.9,5-2.8,8.3-2.8c3.8,0,6.6,1.1,8.4,3.3s2.8,5.5,2.8,9.9
		v21.6c0,0.7-0.6,1.3-1.3,1.3h-6.9c-0.7,0-1.3-0.6-1.3-1.3V24.2c0-2-0.4-3.5-1.3-4.4s-2.3-1.4-4.4-1.4c-2.5,0-4.5,1-5.8,3.1
		c-0.1,0.2-0.2,0.5-0.2,0.7v23.3c0,0.7-0.6,1.3-1.3,1.3h-6.9c-0.7,0-1.3-0.6-1.3-1.3V12.7c0-0.7,0.6-1.3,1.3-1.3h6.4
		C93.5,11.4,94.1,11.9,94.1,12.6z"/>
</g>
<g>
	<path class="st0" d="M70.5,45.9L70.5,45.9c-0.3-1-1.5-1.3-2.3-0.7c-2,1.5-4.5,2.3-7.4,2.3c-3.5,0-6.5-1-8.8-3.1
		c-2.3-2-3.5-4.6-3.5-7.7c0-3.8,1.4-6.8,4.3-8.8c2.8-2,6.9-3.1,12.3-3.1h3c0.8,0,1.5-0.7,1.5-1.5v-0.6c0-1.7-0.4-3-1.3-4
		s-2.2-1.5-4.1-1.5c-1.6,0-2.9,0.4-3.8,1.2c-0.7,0.6-1.1,1.3-1.3,2.1c-0.1,0.7-0.8,1.1-1.4,1.1H51c-0.9,0-1.6-0.9-1.5-1.8
		c0.3-1.4,0.9-2.8,1.8-4c1.3-1.8,3.1-3.2,5.5-4.2s5-1.5,7.9-1.5c4.4,0,8,1.1,10.6,3.4c2.6,2.2,3.9,5.4,3.9,9.4v15.7
		c0,3.4,0.5,6,1.4,7.8V47h-8.8C71.3,46.8,70.7,46.5,70.5,45.9z M62.9,40.1c1.4,0,2.7-0.3,3.9-1c1.1-0.6,1.9-1.3,2.5-2.2
		c0.1-0.2,0.2-0.5,0.2-0.8v-4.3c0-0.8-0.7-1.5-1.5-1.5h-2.1c-4.8,0-7.4,1.7-7.7,5v0.6c0,1.2,0.4,2.2,1.3,3
		C60.3,39.7,61.5,40.1,62.9,40.1z"/>
</g>
<g>
	<path class="st0" d="M138.9,37.9c0-1.2-0.6-2.1-1.7-2.8c-1.2-0.7-3-1.3-5.6-1.8c-8.6-1.8-12.8-5.4-12.8-10.9c0-3.2,1.3-5.9,4-8
		c2.6-2.1,6.1-3.2,10.4-3.2c4.6,0,8.2,1.1,10.9,3.2c0.8,0.7,1.6,1.4,2.1,2.2c1.9,2.6,0,6.2-3.2,6.2h-1.4c-1.5,0-2.9-0.9-3.6-2.3
		c-0.2-0.4-0.5-0.8-0.8-1.1c-0.9-0.9-2.3-1.3-4.2-1.3c-1.6,0-2.9,0.4-3.8,1.1c-0.9,0.7-1.3,1.7-1.3,2.8c0,1.1,0.5,1.9,1.5,2.6
		s2.7,1.2,5.1,1.7c2.4,0.5,4.4,1,6,1.6c5.1,1.9,7.6,5.1,7.6,9.7c0,3.3-1.4,5.9-4.2,8c-2.8,2-6.4,3-10.9,3c-3,0-5.7-0.5-8-1.6
		s-4.2-2.5-5.5-4.4c0,0,0,0,0-0.1c-1.8-2.5,0.1-6,3.2-6h0.9c1.5,0,2.9,0.9,3.5,2.2c0.3,0.7,0.8,1.2,1.4,1.7c1.2,0.9,2.7,1.4,4.7,1.4
		c1.8,0,3.2-0.3,4.2-1C138.5,39.9,138.9,39,138.9,37.9z"/>
</g>
<g>
	<path class="st0" d="M25.7,5c8.2,0,15.4,4.2,19.7,10.5l0.9,1.5L36,22.9l-0.5-0.8c-2.2-3.3-6.1-5.4-10.5-5.2
		c-6.1,0.3-11,5.3-11.3,11.4c-0.3,6.8,5.2,12.4,11.9,12.4c4.1,0,7.7-2.1,9.9-5.2l0.6-0.9l10.4,5.7l-1.1,1.8
		c-4.6,6.8-12.6,11.1-21.5,10.4C12.2,51.6,2.7,42,1.9,30.3C1.1,16.5,12,5,25.7,5L25.7,5z"/>
</g>
<g transform="translate(0.000000,1280.000000) scale(0.100000,-0.100000)">
	<path class="st0" d="M252.2,12597.5c-3.1-6.1-5.3-11.5-7.4-17.9c-9.9-30.8-8.6-65.5,3.6-94.7c1.1-2.7,4.9-10.5,5.1-10.5
		s3.9,7.8,5.1,10.5c8.8,21.3,12,45.8,9.1,69.7c-1.7,13.8-5.5,27.4-10.8,38.8c-1.1,2.3-3.2,6.5-3.3,6.5
		C253.4,12599.9,252.8,12598.8,252.2,12597.5z"/>
	<path class="st0" d="M164.4,12550.2c0-0.2,1.6-4.6,2.2-6.2c3.6-9.5,9-19.1,15.3-27.5c13.7-18.2,32.1-32.6,52.1-40.6
		c3.9-1.5,10.2-3.7,10.2-3.4c0,0.1-0.3,1-0.6,2c-7.4,21.8-22,41.7-41.6,56.7c-10.8,8.2-23.2,14.7-35.2,18.4
		C164.6,12550.2,164.4,12550.2,164.4,12550.2z"/>
	<path class="st0" d="M341.5,12550c-0.3-0.1-1.6-0.5-2.9-0.9c-22.3-7.2-44.2-23.4-58.9-43.5c-7.4-10.1-12.6-20.1-16.4-31.1
		c-0.4-1-0.6-1.9-0.6-2c0-0.1,0.9,0.1,4.5,1.3c11,3.7,21.9,9.4,31.8,16.8c20.1,14.9,35.2,35.3,42.7,57.4c0.4,1.2,0.7,2.1,0.7,2.2
		C342.5,12550.2,342.1,12550.2,341.5,12550z"/>
	<path class="st0" d="M191.2,12475.2c-9-0.6-18-2.6-25.8-5.8c-2.9-1.2-3.7-1.6-3.6-1.7c0.2-0.4,5.5-3.2,8.4-4.4
		c19.4-8.6,42.4-9.6,62.4-2.8c2.6,0.9,7.7,3,7.7,3.1c0,0.1-3.4,2-5.6,3.1C221.8,12473.1,206.2,12476.2,191.2,12475.2z"/>
	<path class="st0" d="M304.8,12475.2c-11.5-0.7-22.9-3.7-32.5-8.4c-2.2-1.1-5.6-3-5.6-3.1c0-0.1,1-0.5,3.5-1.6
		c8-3.3,18.4-5.6,27.2-5.9c1.3,0,2.9-0.1,3.5-0.1c1.6-0.1,7,0.2,9.7,0.5c12.2,1.2,23.3,4.7,33.1,10.4c0.7,0.4,1.3,0.8,1.4,0.9
		c0.1,0.2-4.4,2.1-7.9,3.3C327.2,12474.4,315.7,12475.9,304.8,12475.2z"/>
	<path class="st0" d="M238.4,12453.7c-14.1-1.3-28.4-9.1-37.4-20.2c-0.9-1.2-2.6-3.5-2.6-3.7c0-0.1,1.8-0.1,4.4,0.2
		c8.9,0.8,18.5,4.5,26.2,10c4.9,3.5,9.5,8.1,12.6,12.6l0.9,1.3l-1.4,0C240.4,12453.8,239.1,12453.7,238.4,12453.7z"/>
	<path class="st0" d="M265.2,12452.6c3.2-4.5,7.7-9.1,12.6-12.6c7.7-5.5,17.4-9.2,26.2-10c2.5-0.2,4.4-0.3,4.4-0.2
		c0,0.2-1.7,2.5-2.6,3.7c-9,11.3-23.3,18.9-37.6,20.2c-0.9,0.1-2.2,0.2-2.8,0.2h-1.1L265.2,12452.6z"/>
</g>
</svg>
