<?xml version="1.0" encoding="UTF-8" standalone="no"?>
<!-- Generator: Adobe Illustrator 25.3.1, SVG Export Plug-In . SVG Version: 6.00 Build 0)  -->

<svg
   version="1.1"
   id="Layer_1"
   x="0px"
   y="0px"
   viewBox="0 0 1024 1024"
   style="enable-background:new 0 0 1024 1024;"
   xml:space="preserve"
   sodipodi:docname="cannabis_circle.svg"
   inkscape:version="1.1 (c68e22c387, 2021-05-23)"
   xmlns:inkscape="http://www.inkscape.org/namespaces/inkscape"
   xmlns:sodipodi="http://sodipodi.sourceforge.net/DTD/sodipodi-0.dtd"
   xmlns="http://www.w3.org/2000/svg"
   xmlns:svg="http://www.w3.org/2000/svg"
   xmlns:rdf="http://www.w3.org/1999/02/22-rdf-syntax-ns#"
   xmlns:cc="http://creativecommons.org/ns#"
   xmlns:dc="http://purl.org/dc/elements/1.1/"><metadata
   id="metadata70"><rdf:RDF><cc:Work
       rdf:about=""><dc:format>image/svg+xml</dc:format><dc:type
         rdf:resource="http://purl.org/dc/dcmitype/StillImage" /><dc:title /></cc:Work></rdf:RDF></metadata><defs
   id="defs68"><clipPath
     id="clip20"><rect
       x="883"
       y="3"
       width="2469"
       height="2469"
       id="rect935" /></clipPath><clipPath
     id="clip21"><rect
       x="-2"
       y="-2"
       width="254"
       height="239"
       id="rect938" /></clipPath><filter
     id="fx0"
     x="-10"
     y="-10"
     width="120.00001"
     height="120.00001"
     filterUnits="userSpaceOnUse"
     primitiveUnits="userSpaceOnUse"><feComponentTransfer
       style="color-interpolation-filters:sRGB"
       id="feComponentTransfer683"><feFuncR
         type="discrete"
         tableValues="0 0"
         id="feFuncR675" /><feFuncG
         type="discrete"
         tableValues="0 0"
         id="feFuncG677" /><feFuncB
         type="discrete"
         tableValues="0 0"
         id="feFuncB679" /><feFuncA
         type="linear"
         slope="0.4"
         intercept="0"
         id="feFuncA681" /></feComponentTransfer><feGaussianBlur
       stdDeviation="4.58333 4.58333"
       id="feGaussianBlur685" /></filter><clipPath
     id="clip22"><rect
       x="0"
       y="0"
       width="250"
       height="235"
       id="rect941" /></clipPath><clipPath
     id="clip23"><rect
       x="-2"
       y="-2"
       width="275"
       height="281"
       id="rect944" /></clipPath><filter
     id="fx1"
     x="-10"
     y="-10"
     width="120.00001"
     height="120.00001"
     filterUnits="userSpaceOnUse"
     primitiveUnits="userSpaceOnUse"><feComponentTransfer
       style="color-interpolation-filters:sRGB"
       id="feComponentTransfer696"><feFuncR
         type="discrete"
         tableValues="0 0"
         id="feFuncR688" /><feFuncG
         type="discrete"
         tableValues="0 0"
         id="feFuncG690" /><feFuncB
         type="discrete"
         tableValues="0 0"
         id="feFuncB692" /><feFuncA
         type="linear"
         slope="0.4"
         intercept="0"
         id="feFuncA694" /></feComponentTransfer><feGaussianBlur
       stdDeviation="4.58333 4.58333"
       id="feGaussianBlur698" /></filter><clipPath
     id="clip24"><rect
       x="0"
       y="0"
       width="270"
       height="276"
       id="rect947" /></clipPath><clipPath
     id="clip25"><rect
       x="-2"
       y="-2"
       width="286"
       height="307"
       id="rect950" /></clipPath><filter
     id="fx2"
     x="-10"
     y="-10"
     width="120.00001"
     height="120.00001"
     filterUnits="userSpaceOnUse"
     primitiveUnits="userSpaceOnUse"><feComponentTransfer
       style="color-interpolation-filters:sRGB"
       id="feComponentTransfer709"><feFuncR
         type="discrete"
         tableValues="0 0"
         id="feFuncR701" /><feFuncG
         type="discrete"
         tableValues="0 0"
         id="feFuncG703" /><feFuncB
         type="discrete"
         tableValues="0 0"
         id="feFuncB705" /><feFuncA
         type="linear"
         slope="0.4"
         intercept="0"
         id="feFuncA707" /></feComponentTransfer><feGaussianBlur
       stdDeviation="4.58333 4.58333"
       id="feGaussianBlur711" /></filter><clipPath
     id="clip26"><rect
       x="0"
       y="0"
       width="283"
       height="301"
       id="rect953" /></clipPath><clipPath
     id="clip27"><rect
       x="-2"
       y="-2"
       width="239"
       height="269"
       id="rect956" /></clipPath><filter
     id="fx3"
     x="-10"
     y="-10"
     width="120.00001"
     height="120.00001"
     filterUnits="userSpaceOnUse"
     primitiveUnits="userSpaceOnUse"><feComponentTransfer
       style="color-interpolation-filters:sRGB"
       id="feComponentTransfer722"><feFuncR
         type="discrete"
         tableValues="0 0"
         id="feFuncR714" /><feFuncG
         type="discrete"
         tableValues="0 0"
         id="feFuncG716" /><feFuncB
         type="discrete"
         tableValues="0 0"
         id="feFuncB718" /><feFuncA
         type="linear"
         slope="0.4"
         intercept="0"
         id="feFuncA720" /></feComponentTransfer><feGaussianBlur
       stdDeviation="4.58333 4.58333"
       id="feGaussianBlur724" /></filter><clipPath
     id="clip28"><rect
       x="0"
       y="0"
       width="233"
       height="264"
       id="rect959" /></clipPath><clipPath
     id="clip29"><rect
       x="-2"
       y="-2"
       width="236"
       height="272"
       id="rect962" /></clipPath><filter
     id="fx4"
     x="-10"
     y="-10"
     width="120.00001"
     height="120.00001"
     filterUnits="userSpaceOnUse"
     primitiveUnits="userSpaceOnUse"><feComponentTransfer
       style="color-interpolation-filters:sRGB"
       id="feComponentTransfer735"><feFuncR
         type="discrete"
         tableValues="0 0"
         id="feFuncR727" /><feFuncG
         type="discrete"
         tableValues="0 0"
         id="feFuncG729" /><feFuncB
         type="discrete"
         tableValues="0 0"
         id="feFuncB731" /><feFuncA
         type="linear"
         slope="0.4"
         intercept="0"
         id="feFuncA733" /></feComponentTransfer><feGaussianBlur
       stdDeviation="4.58333 4.58333"
       id="feGaussianBlur737" /></filter><clipPath
     id="clip30"><rect
       x="0"
       y="0"
       width="233"
       height="267"
       id="rect965" /></clipPath><clipPath
     id="clip31"><rect
       x="-2"
       y="-2"
       width="260"
       height="281"
       id="rect968" /></clipPath><filter
     id="fx5"
     x="-10"
     y="-10"
     width="120.00001"
     height="120.00001"
     filterUnits="userSpaceOnUse"
     primitiveUnits="userSpaceOnUse"><feComponentTransfer
       style="color-interpolation-filters:sRGB"
       id="feComponentTransfer748"><feFuncR
         type="discrete"
         tableValues="0 0"
         id="feFuncR740" /><feFuncG
         type="discrete"
         tableValues="0 0"
         id="feFuncG742" /><feFuncB
         type="discrete"
         tableValues="0 0"
         id="feFuncB744" /><feFuncA
         type="linear"
         slope="0.4"
         intercept="0"
         id="feFuncA746" /></feComponentTransfer><feGaussianBlur
       stdDeviation="4.58333 4.58333"
       id="feGaussianBlur750" /></filter><clipPath
     id="clip32"><rect
       x="0"
       y="0"
       width="256"
       height="276"
       id="rect971" /></clipPath><clipPath
     id="clip33"><rect
       x="-2"
       y="-2"
       width="218"
       height="227"
       id="rect974" /></clipPath><filter
     id="fx6"
     x="-10"
     y="-10"
     width="120.00001"
     height="120.00001"
     filterUnits="userSpaceOnUse"
     primitiveUnits="userSpaceOnUse"><feComponentTransfer
       style="color-interpolation-filters:sRGB"
       id="feComponentTransfer761"><feFuncR
         type="discrete"
         tableValues="0 0"
         id="feFuncR753" /><feFuncG
         type="discrete"
         tableValues="0 0"
         id="feFuncG755" /><feFuncB
         type="discrete"
         tableValues="0 0"
         id="feFuncB757" /><feFuncA
         type="linear"
         slope="0.4"
         intercept="0"
         id="feFuncA759" /></feComponentTransfer><feGaussianBlur
       stdDeviation="4.58333 4.58333"
       id="feGaussianBlur763" /></filter><clipPath
     id="clip34"><rect
       x="0"
       y="0"
       width="215"
       height="224"
       id="rect977" /></clipPath><clipPath
     id="clip35"><rect
       x="-2"
       y="-2"
       width="257"
       height="245"
       id="rect980" /></clipPath><filter
     id="fx7"
     x="-10"
     y="-10"
     width="120.00001"
     height="120.00001"
     filterUnits="userSpaceOnUse"
     primitiveUnits="userSpaceOnUse"><feComponentTransfer
       style="color-interpolation-filters:sRGB"
       id="feComponentTransfer774"><feFuncR
         type="discrete"
         tableValues="0 0"
         id="feFuncR766" /><feFuncG
         type="discrete"
         tableValues="0 0"
         id="feFuncG768" /><feFuncB
         type="discrete"
         tableValues="0 0"
         id="feFuncB770" /><feFuncA
         type="linear"
         slope="0.4"
         intercept="0"
         id="feFuncA772" /></feComponentTransfer><feGaussianBlur
       stdDeviation="4.58333 4.58333"
       id="feGaussianBlur776" /></filter><clipPath
     id="clip36"><rect
       x="0"
       y="0"
       width="251"
       height="240"
       id="rect983" /></clipPath><clipPath
     id="clip37"><rect
       x="-2"
       y="-2"
       width="227"
       height="213"
       id="rect986" /></clipPath><filter
     id="fx8"
     x="-10"
     y="-10"
     width="120.00001"
     height="120.00001"
     filterUnits="userSpaceOnUse"
     primitiveUnits="userSpaceOnUse"><feComponentTransfer
       style="color-interpolation-filters:sRGB"
       id="feComponentTransfer787"><feFuncR
         type="discrete"
         tableValues="0 0"
         id="feFuncR779" /><feFuncG
         type="discrete"
         tableValues="0 0"
         id="feFuncG781" /><feFuncB
         type="discrete"
         tableValues="0 0"
         id="feFuncB783" /><feFuncA
         type="linear"
         slope="0.4"
         intercept="0"
         id="feFuncA785" /></feComponentTransfer><feGaussianBlur
       stdDeviation="4.58333 4.58333"
       id="feGaussianBlur789" /></filter><clipPath
     id="clip38"><rect
       x="0"
       y="0"
       width="224"
       height="209"
       id="rect989" /></clipPath><clipPath
     id="clip39"><rect
       x="-2"
       y="-2"
       width="248"
       height="260"
       id="rect992" /></clipPath><filter
     id="fx9"
     x="-10"
     y="-10"
     width="120.00001"
     height="120.00001"
     filterUnits="userSpaceOnUse"
     primitiveUnits="userSpaceOnUse"><feComponentTransfer
       style="color-interpolation-filters:sRGB"
       id="feComponentTransfer800"><feFuncR
         type="discrete"
         tableValues="0 0"
         id="feFuncR792" /><feFuncG
         type="discrete"
         tableValues="0 0"
         id="feFuncG794" /><feFuncB
         type="discrete"
         tableValues="0 0"
         id="feFuncB796" /><feFuncA
         type="linear"
         slope="0.4"
         intercept="0"
         id="feFuncA798" /></feComponentTransfer><feGaussianBlur
       stdDeviation="4.58333 4.58333"
       id="feGaussianBlur802" /></filter><clipPath
     id="clip40"><rect
       x="0"
       y="0"
       width="245"
       height="256"
       id="rect995" /></clipPath><clipPath
     id="clip41"><rect
       x="-2"
       y="-2"
       width="260"
       height="257"
       id="rect998" /></clipPath><filter
     id="fx10"
     x="-10"
     y="-10"
     width="120.00001"
     height="120.00001"
     filterUnits="userSpaceOnUse"
     primitiveUnits="userSpaceOnUse"><feComponentTransfer
       style="color-interpolation-filters:sRGB"
       id="feComponentTransfer813"><feFuncR
         type="discrete"
         tableValues="0 0"
         id="feFuncR805" /><feFuncG
         type="discrete"
         tableValues="0 0"
         id="feFuncG807" /><feFuncB
         type="discrete"
         tableValues="0 0"
         id="feFuncB809" /><feFuncA
         type="linear"
         slope="0.4"
         intercept="0"
         id="feFuncA811" /></feComponentTransfer><feGaussianBlur
       stdDeviation="4.58333 4.58333"
       id="feGaussianBlur815" /></filter><clipPath
     id="clip42"><rect
       x="0"
       y="0"
       width="257"
       height="253"
       id="rect1001" /></clipPath><clipPath
     id="clip43"><rect
       x="-2"
       y="-2"
       width="251"
       height="263"
       id="rect1004" /></clipPath><filter
     id="fx11"
     x="-10"
     y="-10"
     width="120.00001"
     height="120.00001"
     filterUnits="userSpaceOnUse"
     primitiveUnits="userSpaceOnUse"><feComponentTransfer
       style="color-interpolation-filters:sRGB"
       id="feComponentTransfer826"><feFuncR
         type="discrete"
         tableValues="0 0"
         id="feFuncR818" /><feFuncG
         type="discrete"
         tableValues="0 0"
         id="feFuncG820" /><feFuncB
         type="discrete"
         tableValues="0 0"
         id="feFuncB822" /><feFuncA
         type="linear"
         slope="0.4"
         intercept="0"
         id="feFuncA824" /></feComponentTransfer><feGaussianBlur
       stdDeviation="4.58333 4.58333"
       id="feGaussianBlur828" /></filter><clipPath
     id="clip44"><rect
       x="0"
       y="0"
       width="245"
       height="259"
       id="rect1007" /></clipPath><clipPath
     id="clip45"><rect
       x="-2"
       y="-2"
       width="251"
       height="269"
       id="rect1010" /></clipPath><filter
     id="fx12"
     x="-10"
     y="-10"
     width="120.00001"
     height="120.00001"
     filterUnits="userSpaceOnUse"
     primitiveUnits="userSpaceOnUse"><feComponentTransfer
       style="color-interpolation-filters:sRGB"
       id="feComponentTransfer839"><feFuncR
         type="discrete"
         tableValues="0 0"
         id="feFuncR831" /><feFuncG
         type="discrete"
         tableValues="0 0"
         id="feFuncG833" /><feFuncB
         type="discrete"
         tableValues="0 0"
         id="feFuncB835" /><feFuncA
         type="linear"
         slope="0.4"
         intercept="0"
         id="feFuncA837" /></feComponentTransfer><feGaussianBlur
       stdDeviation="4.58333 4.58333"
       id="feGaussianBlur841" /></filter><clipPath
     id="clip46"><rect
       x="0"
       y="0"
       width="247"
       height="264"
       id="rect1013" /></clipPath><clipPath
     id="clip47"><rect
       x="-2"
       y="-2"
       width="192"
       height="242"
       id="rect1016" /></clipPath><filter
     id="fx13"
     x="-10"
     y="-10"
     width="120.00001"
     height="120.00001"
     filterUnits="userSpaceOnUse"
     primitiveUnits="userSpaceOnUse"><feComponentTransfer
       style="color-interpolation-filters:sRGB"
       id="feComponentTransfer852"><feFuncR
         type="discrete"
         tableValues="0 0"
         id="feFuncR844" /><feFuncG
         type="discrete"
         tableValues="0 0"
         id="feFuncG846" /><feFuncB
         type="discrete"
         tableValues="0 0"
         id="feFuncB848" /><feFuncA
         type="linear"
         slope="0.4"
         intercept="0"
         id="feFuncA850" /></feComponentTransfer><feGaussianBlur
       stdDeviation="4.58333 4.58333"
       id="feGaussianBlur854" /></filter><clipPath
     id="clip48"><rect
       x="0"
       y="0"
       width="187"
       height="236"
       id="rect1019" /></clipPath><clipPath
     id="clip49"><rect
       x="-2"
       y="-2"
       width="186"
       height="227"
       id="rect1022" /></clipPath><filter
     id="fx14"
     x="-10"
     y="-10"
     width="120.00001"
     height="120.00001"
     filterUnits="userSpaceOnUse"
     primitiveUnits="userSpaceOnUse"><feComponentTransfer
       style="color-interpolation-filters:sRGB"
       id="feComponentTransfer865"><feFuncR
         type="discrete"
         tableValues="0 0"
         id="feFuncR857" /><feFuncG
         type="discrete"
         tableValues="0 0"
         id="feFuncG859" /><feFuncB
         type="discrete"
         tableValues="0 0"
         id="feFuncB861" /><feFuncA
         type="linear"
         slope="0.4"
         intercept="0"
         id="feFuncA863" /></feComponentTransfer><feGaussianBlur
       stdDeviation="4.58333 4.58333"
       id="feGaussianBlur867" /></filter><clipPath
     id="clip50"><rect
       x="0"
       y="0"
       width="180"
       height="224"
       id="rect1025" /></clipPath><clipPath
     id="clip51"><rect
       x="-2"
       y="-2"
       width="195"
       height="245"
       id="rect1028" /></clipPath><filter
     id="fx15"
     x="-10"
     y="-10"
     width="120.00001"
     height="120.00001"
     filterUnits="userSpaceOnUse"
     primitiveUnits="userSpaceOnUse"><feComponentTransfer
       style="color-interpolation-filters:sRGB"
       id="feComponentTransfer878"><feFuncR
         type="discrete"
         tableValues="0 0"
         id="feFuncR870" /><feFuncG
         type="discrete"
         tableValues="0 0"
         id="feFuncG872" /><feFuncB
         type="discrete"
         tableValues="0 0"
         id="feFuncB874" /><feFuncA
         type="linear"
         slope="0.4"
         intercept="0"
         id="feFuncA876" /></feComponentTransfer><feGaussianBlur
       stdDeviation="4.58333 4.58333"
       id="feGaussianBlur880" /></filter><clipPath
     id="clip52"><rect
       x="0"
       y="0"
       width="190"
       height="241"
       id="rect1031" /></clipPath><clipPath
     id="clip53"><rect
       x="-2"
       y="-2"
       width="195"
       height="260"
       id="rect1034" /></clipPath><filter
     id="fx16"
     x="-10"
     y="-10"
     width="120.00001"
     height="120.00001"
     filterUnits="userSpaceOnUse"
     primitiveUnits="userSpaceOnUse"><feComponentTransfer
       style="color-interpolation-filters:sRGB"
       id="feComponentTransfer891"><feFuncR
         type="discrete"
         tableValues="0 0"
         id="feFuncR883" /><feFuncG
         type="discrete"
         tableValues="0 0"
         id="feFuncG885" /><feFuncB
         type="discrete"
         tableValues="0 0"
         id="feFuncB887" /><feFuncA
         type="linear"
         slope="0.4"
         intercept="0"
         id="feFuncA889" /></feComponentTransfer><feGaussianBlur
       stdDeviation="4.58333 4.58333"
       id="feGaussianBlur893" /></filter><clipPath
     id="clip54"><rect
       x="0"
       y="0"
       width="190"
       height="256"
       id="rect1037" /></clipPath><clipPath
     id="clip55"><rect
       x="-2"
       y="-2"
       width="245"
       height="248"
       id="rect1040" /></clipPath><filter
     id="fx17"
     x="-10"
     y="-10"
     width="120.00001"
     height="120.00001"
     filterUnits="userSpaceOnUse"
     primitiveUnits="userSpaceOnUse"><feComponentTransfer
       style="color-interpolation-filters:sRGB"
       id="feComponentTransfer904"><feFuncR
         type="discrete"
         tableValues="0 0"
         id="feFuncR896" /><feFuncG
         type="discrete"
         tableValues="0 0"
         id="feFuncG898" /><feFuncB
         type="discrete"
         tableValues="0 0"
         id="feFuncB900" /><feFuncA
         type="linear"
         slope="0.4"
         intercept="0"
         id="feFuncA902" /></feComponentTransfer><feGaussianBlur
       stdDeviation="4.58333 4.58333"
       id="feGaussianBlur906" /></filter><clipPath
     id="clip56"><rect
       x="0"
       y="0"
       width="241"
       height="243"
       id="rect1043" /></clipPath><clipPath
     id="clip57"><rect
       x="-2"
       y="-2"
       width="275"
       height="236"
       id="rect1046" /></clipPath><filter
     id="fx18"
     x="-10"
     y="-10"
     width="120.00001"
     height="120.00001"
     filterUnits="userSpaceOnUse"
     primitiveUnits="userSpaceOnUse"><feComponentTransfer
       style="color-interpolation-filters:sRGB"
       id="feComponentTransfer917"><feFuncR
         type="discrete"
         tableValues="0 0"
         id="feFuncR909" /><feFuncG
         type="discrete"
         tableValues="0 0"
         id="feFuncG911" /><feFuncB
         type="discrete"
         tableValues="0 0"
         id="feFuncB913" /><feFuncA
         type="linear"
         slope="0.4"
         intercept="0"
         id="feFuncA915" /></feComponentTransfer><feGaussianBlur
       stdDeviation="4.58333 4.58333"
       id="feGaussianBlur919" /></filter><clipPath
     id="clip58"><rect
       x="0"
       y="0"
       width="271"
       height="233"
       id="rect1049" /></clipPath><clipPath
     id="clip59"><rect
       x="-2"
       y="-2"
       width="275"
       height="286"
       id="rect1052" /></clipPath><filter
     id="fx19"
     x="-10"
     y="-10"
     width="120.00001"
     height="120.00001"
     filterUnits="userSpaceOnUse"
     primitiveUnits="userSpaceOnUse"><feComponentTransfer
       style="color-interpolation-filters:sRGB"
       id="feComponentTransfer930"><feFuncR
         type="discrete"
         tableValues="0 0"
         id="feFuncR922" /><feFuncG
         type="discrete"
         tableValues="0 0"
         id="feFuncG924" /><feFuncB
         type="discrete"
         tableValues="0 0"
         id="feFuncB926" /><feFuncA
         type="linear"
         slope="0.4"
         intercept="0"
         id="feFuncA928" /></feComponentTransfer><feGaussianBlur
       stdDeviation="4.58333 4.58333"
       id="feGaussianBlur932" /></filter><clipPath
     id="clip60"><rect
       x="0"
       y="0"
       width="271"
       height="282"
       id="rect1055" /></clipPath></defs><sodipodi:namedview
   pagecolor="#ffffff"
   bordercolor="#666666"
   borderopacity="1"
   objecttolerance="10"
   gridtolerance="10"
   guidetolerance="10"
   inkscape:pageopacity="0"
   inkscape:pageshadow="2"
   inkscape:window-width="1920"
   inkscape:window-height="974"
   id="namedview66"
   showgrid="false"
   inkscape:zoom="0.5510461"
   inkscape:cx="815.72123"
   inkscape:cy="440.97944"
   inkscape:window-x="-11"
   inkscape:window-y="-11"
   inkscape:window-maximized="1"
   inkscape:current-layer="Layer_1"
   inkscape:pagecheckerboard="0" />
<style
   type="text/css"
   id="style41">
	.st0{fill:#FFFFFF;}
	.st1{fill:#C1AA3C;}
	.st2{fill:#C3A646;}
</style>
<circle
   class="st0"
   cx="512"
   cy="512"
   r="505.7"
   id="circle43" />


<g
   clip-path="url(#clip20)"
   transform="matrix(0.40607494,0,0,0.40607494,-346.68998,7.4854345)"
   id="g1270"><path
   style="fill:none;fill-rule:evenodd;stroke:#284b22;stroke-width:45.8333;stroke-miterlimit:8"
   inkscape:connector-curvature="0"
   d="M 906,1237.5 C 906,568.407 1448.41,26.0001 2117.5,26.0001 2786.59,26.0001 3329,568.407 3329,1237.5 3329,1906.59 2786.59,2449 2117.5,2449 1448.41,2449 906,1906.59 906,1237.5 Z"
   stroke-miterlimit="8"
   id="path1060" /><path
   style="fill:none;fill-rule:evenodd;stroke:#284b22;stroke-width:343.75;stroke-miterlimit:8"
   inkscape:connector-curvature="0"
   d="m 1134,1237.5 c 0,-543.172 440.33,-983.5 983.5,-983.5 543.17,0 983.5,440.328 983.5,983.5 0,543.17 -440.33,983.5 -983.5,983.5 -543.17,0 -983.5,-440.33 -983.5,-983.5 z"
   stroke-miterlimit="8"
   id="path1062" /><g
   style="filter:url(#fx0)"
   clip-path="url(#clip21)"
   transform="translate(1180,627)"
   id="g1068"><g
     clip-path="url(#clip22)"
     id="g1066"><path
       style="fill:#ffffff;fill-rule:evenodd"
       inkscape:connector-curvature="0"
       d="M 28.1925,63.0281 C 41.4086,40.4778 57.9668,25.8311 77.867,19.088 c 19.9002,-6.7432 40.823,-4.9415 62.769,5.4051 l -26.183,44.675 C 102.936,62.8755 93.1382,60.9634 85.0607,63.4318 76.9833,65.9002 69.7278,72.6231 63.2943,83.6003 56.761,94.7478 56.1429,105.361 61.4401,115.439 c 5.2971,10.078 17.0186,20.606 35.1645,31.584 l 13.1474,7.705 c 19.827,11.621 35.454,17.435 46.881,17.444 11.427,0.01 20.707,-6.07 27.838,-18.239 6.035,-10.296 8.223,-19.589 6.564,-27.878 -1.658,-8.289 -7.664,-15.695 -18.016,-22.22 l 26.108,-44.5472 c 12.585,8.1763 21.964,18.3605 28.138,30.5528 6.173,12.1924 8.604,25.6494 7.292,40.3714 -1.312,14.722 -6.306,29.487 -14.984,44.293 -14.313,24.423 -33.541,38.991 -57.682,43.706 -24.142,4.714 -50.722,-1.431 -79.7393,-18.438 l -9.1903,-5.386 C 54.7511,183.714 40.6747,171.206 30.7324,156.862 20.7901,142.518 15.5871,127.207 15.1234,110.93 14.6596,94.6529 19.016,78.6856 28.1925,63.0281 Z"
       id="path1064" /></g></g><path
   style="fill:#ffffff;fill-rule:evenodd"
   inkscape:connector-curvature="0"
   d="m 1203.33,685.167 c 13.22,-22.551 29.78,-37.197 49.68,-43.94 19.9,-6.744 40.82,-4.942 62.76,5.405 l -26.18,44.675 c -11.52,-6.293 -21.31,-8.205 -29.39,-5.737 -8.08,2.469 -15.33,9.192 -21.77,20.169 -6.53,11.147 -7.15,21.76 -1.85,31.839 5.3,10.078 17.02,20.606 35.16,31.584 l 13.15,7.705 c 19.83,11.62 35.45,17.435 46.88,17.444 11.43,0.009 20.71,-6.071 27.84,-18.239 6.03,-10.297 8.22,-19.589 6.56,-27.878 -1.65,-8.289 -7.66,-15.696 -18.01,-22.22 l 26.11,-44.547 c 12.58,8.176 21.96,18.36 28.13,30.552 6.18,12.192 8.61,25.65 7.3,40.372 -1.32,14.722 -6.31,29.487 -14.99,44.293 -14.31,24.422 -33.54,38.991 -57.68,43.705 -24.14,4.715 -50.72,-1.431 -79.74,-18.437 l -9.19,-5.386 c -18.21,-10.673 -32.29,-23.181 -42.23,-37.525 -9.94,-14.345 -15.14,-29.655 -15.61,-45.932 -0.46,-16.277 3.89,-32.245 13.07,-47.902 z"
   id="path1070" /><text
   style="font-size:204.649px;font-family:Arial, Arial_MSFontService, sans-serif;fill:#000000;fill-opacity:0"
   font-size="204.649"
   x="1190.23"
   y="816.30298"
   id="text1072">C</text>
<g
   style="filter:url(#fx1)"
   clip-path="url(#clip23)"
   transform="translate(1379,412)"
   id="g1078"><g
     clip-path="url(#clip24)"
     id="g1076"><path
       style="fill:#ffffff;fill-rule:evenodd"
       inkscape:connector-curvature="0"
       d="m 73.225,76.5439 33.284,70.7611 34.219,-31.2 z M 14.516,48.3853 50.5944,15.4906 254.548,121.044 l -41.216,37.58 -36.407,-21.264 -52.587,47.946 17.93,38.111 -40.998,37.38 z"
       id="path1074" /></g></g><path
   style="fill:#ffffff;fill-rule:evenodd"
   inkscape:connector-curvature="0"
   d="m 1447.36,483.683 33.29,70.761 34.22,-31.2 z m -58.71,-28.159 36.08,-32.895 203.96,105.554 -41.22,37.58 -36.41,-21.265 -52.58,47.947 17.93,38.11 -41,37.381 z"
   id="path1080" /><text
   style="font-size:245.306px;font-family:Arial, Arial_MSFontService, sans-serif;fill:#000000;fill-opacity:0"
   font-size="245.306"
   x="1388.65"
   y="637.27197"
   id="text1082">A</text>
<g
   style="filter:url(#fx2)"
   clip-path="url(#clip25)"
   transform="translate(1589,210)"
   id="g1088"><g
     clip-path="url(#clip26)"
     id="g1086"><path
       style="fill:#ffffff;fill-rule:evenodd"
       inkscape:connector-curvature="0"
       d="M 14.7585,90.2207 61.9954,68.6471 186.989,158.921 131.303,36.9936 178.405,15.4815 267.896,211.427 220.928,232.878 95.8001,142.665 151.486,264.593 104.249,286.166 Z"
       id="path1084" /></g></g><path
   style="fill:#ffffff;fill-rule:evenodd"
   inkscape:connector-curvature="0"
   d="m 1598.9,295.359 47.23,-21.573 125,90.274 -55.69,-121.928 47.1,-21.512 89.49,195.946 -46.96,21.45 -125.13,-90.212 55.68,121.927 -47.23,21.574 z"
   id="path1090" /><text
   style="font-size:270.685px;font-family:Arial, Arial_MSFontService, sans-serif;fill:#000000;fill-opacity:0"
   font-size="270.685"
   x="1598.9"
   y="457.46899"
   id="text1092">N</text>
<g
   style="filter:url(#fx3)"
   clip-path="url(#clip27)"
   transform="translate(1901,149)"
   id="g1098"><g
     clip-path="url(#clip28)"
     id="g1096"><path
       style="fill:#ffffff;fill-rule:evenodd"
       inkscape:connector-curvature="0"
       d="M 15.3577,35.0845 66.9612,29.2694 157.686,153.936 142.676,20.7374 194.132,14.9389 218.254,228.998 166.945,234.78 76.0732,110.13 91.083,243.329 39.4794,249.144 Z"
       id="path1094" /></g></g><path
   style="fill:#ffffff;fill-rule:evenodd"
   inkscape:connector-curvature="0"
   d="m 1911.5,179.223 51.6,-5.815 90.72,124.667 -15.01,-133.199 51.46,-5.798 24.12,214.059 -51.31,5.782 -90.87,-124.651 15.01,133.199 -51.6,5.815 z"
   id="path1100" /><text
   style="font-size:234.205px;font-family:Arial, Arial_MSFontService, sans-serif;fill:#000000;fill-opacity:0"
   font-size="234.205"
   x="1911.5"
   y="364.00699"
   id="text1102">N</text>
<g
   style="filter:url(#fx4)"
   clip-path="url(#clip29)"
   transform="translate(2175,169)"
   id="g1108"><g
     clip-path="url(#clip30)"
     id="g1106"><path
       style="fill:#ffffff;fill-rule:evenodd"
       inkscape:connector-curvature="0"
       d="m 147.414,79.2592 -37.787,68.4618 45.341,9.414 z m -11.631,-64.0655 47.804,9.9255 34.142,227.0968 -54.612,-11.339 -4.132,-41.958 -69.6774,-14.467 -20.349,36.875 -54.3225,-11.279 z"
       id="path1104" /></g></g><path
   style="fill:#ffffff;fill-rule:evenodd"
   inkscape:connector-curvature="0"
   d="m 2317.55,243.398 -37.78,68.462 45.34,9.414 z m -11.63,-64.066 47.81,9.926 34.14,227.097 -54.61,-11.339 -4.14,-41.958 -69.67,-14.468 -20.35,36.876 -54.33,-11.279 z"
   id="path1110" /><text
   style="font-size:237.023px;font-family:Arial, Arial_MSFontService, sans-serif;fill:#000000;fill-opacity:0"
   font-size="237.023"
   x="2184.77"
   y="386.72699"
   id="text1112">A</text>
<g
   style="filter:url(#fx5)"
   clip-path="url(#clip31)"
   transform="translate(2443,246)"
   id="g1118"><g
     clip-path="url(#clip32)"
     id="g1116"><path
       style="fill:#ffffff;fill-rule:evenodd"
       inkscape:connector-curvature="0"
       d="m 105.027,148.594 -25.0872,45.13 29.7422,16.533 c 8.19,4.553 15.525,6.176 22.006,4.87 6.482,-1.306 11.615,-5.365 15.401,-12.175 8.722,-15.69 5.305,-27.915 -10.251,-36.675 z m 40.757,-73.3207 -24.224,43.5787 23.664,13.154 c 9.962,5.425 18.041,7.539 24.236,6.342 6.195,-1.197 11.215,-5.254 15.06,-12.171 4.422,-7.956 5.322,-14.954 2.699,-20.996 -2.623,-6.041 -9.02,-11.8891 -19.193,-17.5439 z m -25.98,-60.1454 67.631,37.5947 c 24.224,13.466 40.183,28.149 47.877,44.0491 7.693,15.9003 6.844,32.2983 -2.549,49.1953 -5.415,9.742 -12.281,16.815 -20.597,21.22 -8.317,4.404 -17.739,5.825 -28.267,4.26 8.39,8.05 13.249,17.071 14.579,27.063 1.329,9.992 -0.834,20.075 -6.489,30.247 -10.255,18.449 -23.799,29.06 -40.632,31.834 -16.833,2.774 -36.763,-2.126 -59.7903,-14.701 L 15.1426,203.408 Z"
       id="path1114" /></g></g><path
   style="fill:#ffffff;fill-rule:evenodd"
   inkscape:connector-curvature="0"
   d="m 2543.17,389.732 -25.09,45.131 29.74,16.533 c 8.19,4.552 15.53,6.175 22.01,4.869 6.48,-1.306 11.61,-5.364 15.4,-12.174 8.72,-15.69 5.3,-27.915 -10.25,-36.675 z m 40.75,-73.32 -24.22,43.578 23.66,13.155 c 9.96,5.425 18.04,7.539 24.24,6.341 6.19,-1.197 11.21,-5.254 15.06,-12.171 4.42,-7.955 5.32,-14.954 2.7,-20.995 -2.62,-6.041 -9.02,-11.889 -19.19,-17.544 z m -25.98,-60.145 67.63,37.594 c 24.23,13.466 40.19,28.149 47.88,44.049 7.69,15.9 6.84,32.299 -2.55,49.196 -5.41,9.741 -12.28,16.814 -20.6,21.219 -8.31,4.405 -17.73,5.825 -28.26,4.261 8.39,8.049 13.25,17.07 14.58,27.063 1.33,9.992 -0.84,20.074 -6.49,30.247 -10.26,18.449 -23.8,29.06 -40.63,31.834 -16.84,2.774 -36.77,-2.126 -59.79,-14.701 l -76.43,-42.483 z"
   id="path1120" /><text
   style="font-size:246.216px;font-family:Arial, Arial_MSFontService, sans-serif;fill:#000000;fill-opacity:0"
   font-size="246.216"
   x="2453.28"
   y="471.70499"
   id="text1122">B</text>
<g
   style="filter:url(#fx6)"
   clip-path="url(#clip33)"
   transform="translate(2658,416)"
   id="g1128"><g
     clip-path="url(#clip34)"
     id="g1126"><path
       style="fill:#ffffff;fill-rule:evenodd"
       inkscape:connector-curvature="0"
       d="M 161.569,15.2998 199.587,50.4579 53.329,208.609 15.3118,173.451 Z"
       id="path1124" /></g></g><path
   style="fill:#ffffff;fill-rule:evenodd"
   inkscape:connector-curvature="0"
   d="m 2814.71,426.438 38.02,35.159 -146.26,158.151 -38.02,-35.158 z"
   id="path1130" /><text
   style="font-size:193.31px;font-family:Arial, Arial_MSFontService, sans-serif;fill:#000000;fill-opacity:0"
   font-size="193.31"
   x="2668.45"
   y="595.58398"
   id="text1132">I</text>
<g
   style="filter:url(#fx7)"
   clip-path="url(#clip35)"
   transform="translate(2786,581)"
   id="g1138"><g
     clip-path="url(#clip36)"
     id="g1136"><path
       style="fill:#ffffff;fill-rule:evenodd"
       inkscape:connector-curvature="0"
       d="m 218.855,58.6515 c 8.623,12.8626 14.059,25.9317 16.308,39.2073 2.25,13.2752 1.03,25.5822 -3.66,36.9192 -4.69,11.337 -12.483,20.658 -23.379,27.963 L 179.29,119.729 c 7.292,-4.888 11.448,-10.91 12.469,-18.066 1.022,-7.1566 -1.022,-14.5443 -6.129,-22.1635 -5.163,-7.7012 -10.941,-12.6447 -17.334,-14.8306 -6.393,-2.1858 -12.211,-1.5212 -17.455,1.9937 -4.588,3.0756 -7.098,8.3207 -7.53,15.7352 -0.433,7.4146 1.511,18.6392 5.83,33.6742 4.32,15.034 6.849,28.063 7.589,39.086 1.819,26.804 -7.062,46.769 -26.642,59.895 -15.648,10.49 -31.8918,12.829 -48.7306,7.018 C 64.5187,216.26 49.2068,203.072 35.4216,182.509 25.7006,168.008 19.5007,153.135 16.8219,137.891 14.1432,122.647 15.3394,109.02 20.4106,97.0119 25.4818,85.0034 33.9163,75.0448 45.7137,67.1362 L 74.712,110.394 c -9.5854,6.426 -14.9903,13.641 -16.2146,21.646 -1.2243,8.004 1.8982,17.578 9.3675,28.72 4.7782,7.128 10.0901,11.73 15.9359,13.808 5.8458,2.078 11.5542,1.25 17.1252,-2.485 6.308,-4.229 9.728,-9.757 10.257,-16.583 0.53,-6.827 -1.083,-17.116 -4.839,-30.866 -3.755,-13.75 -6.26,-25.3703 -7.5156,-34.8596 -4.1548,-30.8195 3.7216,-52.9022 23.6306,-66.248 9.913,-6.6454 20.595,-9.6203 32.045,-8.9246 11.45,0.6957 22.827,4.9137 34.131,12.6539 11.305,7.7402 21.378,18.2055 30.22,31.3958 z"
       id="path1134" /></g></g><path
   style="fill:#ffffff;fill-rule:evenodd"
   inkscape:connector-curvature="0"
   d="m 2999.99,634.79 c 8.63,12.863 14.06,25.932 16.31,39.207 2.25,13.276 1.03,25.582 -3.66,36.92 -4.69,11.337 -12.48,20.658 -23.38,27.962 l -28.83,-43.011 c 7.29,-4.888 11.45,-10.91 12.47,-18.067 1.02,-7.156 -1.02,-14.544 -6.13,-22.163 -5.16,-7.701 -10.94,-12.645 -17.34,-14.83 -6.39,-2.186 -12.21,-1.522 -17.45,1.993 -4.59,3.076 -7.1,8.321 -7.53,15.735 -0.43,7.415 1.51,18.64 5.83,33.674 4.32,15.035 6.85,28.064 7.59,39.086 1.82,26.804 -7.06,46.77 -26.64,59.896 -15.65,10.49 -31.9,12.829 -48.73,7.018 -16.84,-5.811 -32.15,-18.999 -45.94,-39.563 -9.72,-14.501 -15.92,-29.373 -18.6,-44.618 -2.68,-15.244 -1.48,-28.87 3.59,-40.878 5.07,-12.009 13.5,-21.968 25.3,-29.876 l 29,43.258 c -9.58,6.425 -14.99,13.641 -16.21,21.645 -1.23,8.005 1.89,17.578 9.36,28.721 4.78,7.127 10.09,11.73 15.94,13.808 5.85,2.078 11.55,1.249 17.12,-2.485 6.31,-4.229 9.73,-9.757 10.26,-16.584 0.53,-6.826 -1.08,-17.115 -4.84,-30.865 -3.75,-13.751 -6.26,-25.371 -7.51,-34.86 -4.16,-30.819 3.72,-52.902 23.63,-66.248 9.91,-6.645 20.59,-9.62 32.04,-8.925 11.45,0.696 22.83,4.914 34.13,12.654 11.31,7.741 21.38,18.206 30.22,31.396 z"
   id="path1140" /><text
   style="font-size:210.676px;font-family:Arial, Arial_MSFontService, sans-serif;fill:#000000;fill-opacity:0"
   font-size="210.676"
   x="2796.5701"
   y="774.98297"
   id="text1142">S</text>
<g
   style="filter:url(#fx8)"
   clip-path="url(#clip37)"
   transform="translate(1096,1420)"
   id="g1148"><g
     clip-path="url(#clip38)"
     id="g1146"><path
       style="fill:#ffffff;fill-rule:evenodd"
       inkscape:connector-curvature="0"
       d="m 204.427,72.0691 c 6.575,22.564 6.519,41.5939 -0.171,57.0879 -6.69,15.495 -19.977,27.265 -39.863,35.311 l -12.257,-42.059 c 9.685,-4.443 15.96,-9.782 18.823,-16.016 2.863,-6.235 2.965,-13.9144 0.306,-23.0396 -3.192,-10.9502 -10.303,-18.0579 -21.335,-21.323 -11.032,-3.2651 -25.187,-2.4249 -42.466,2.5206 l -10.9503,3.1913 c -18.0845,5.2703 -30.768,12.3192 -38.0506,21.1467 -7.2826,8.8274 -8.9898,19.878 -5.1217,33.151 3.3121,11.365 8.3082,19.089 14.9883,23.172 l 28.1221,-8.195 -8.8483,-30.362 29.9885,-8.74 21.577,74.038 -74.4116,21.686 C 55.3331,189.096 46.4539,181.018 38.1199,169.406 29.7859,157.795 23.3705,144.274 18.8738,128.844 11.9596,105.119 13.6941,84.0481 24.0773,65.6318 34.4606,47.2156 52.4483,33.7383 78.0405,25.2 L 93.683,20.5063 c 17.836,-5.1977 34.329,-6.5844 49.481,-4.16 15.152,2.4245 28.026,8.4602 38.623,18.1073 10.596,9.6471 18.143,22.1856 22.64,37.6155 z"
       id="path1144" /></g></g><path
   style="fill:#ffffff;fill-rule:evenodd"
   inkscape:connector-curvature="0"
   d="m 1295.57,1487.21 c 6.57,22.56 6.51,41.59 -0.18,57.09 -6.68,15.49 -19.97,27.26 -39.86,35.31 l -12.26,-42.06 c 9.69,-4.45 15.96,-9.78 18.83,-16.02 2.86,-6.23 2.96,-13.91 0.3,-23.04 -3.19,-10.95 -10.3,-18.06 -21.33,-21.32 -11.03,-3.27 -25.19,-2.43 -42.47,2.52 l -10.95,3.19 c -18.08,5.27 -30.77,12.32 -38.05,21.15 -7.28,8.83 -8.99,19.88 -5.12,33.15 3.31,11.36 8.31,19.09 14.99,23.17 l 28.12,-8.19 -8.85,-30.37 29.99,-8.74 21.58,74.04 -74.41,21.69 c -9.43,-4.55 -18.31,-12.62 -26.64,-24.23 -8.34,-11.62 -14.75,-25.14 -19.25,-40.57 -6.91,-23.72 -5.18,-44.79 5.21,-63.21 10.38,-18.42 28.37,-31.89 53.96,-40.43 l 15.64,-4.69 c 17.84,-5.2 34.33,-6.59 49.48,-4.17 15.15,2.43 28.03,8.47 38.63,18.11 10.59,9.65 18.14,22.19 22.64,37.62 z"
   id="path1150" /><text
   style="font-size:178.45px;font-family:Arial, Arial_MSFontService, sans-serif;fill:#000000;fill-opacity:0"
   font-size="178.45"
   x="1105.87"
   y="1586.47"
   id="text1152">G</text>
<g
   style="filter:url(#fx9)"
   clip-path="url(#clip39)"
   transform="translate(1164,1606)"
   id="g1158"><g
     clip-path="url(#clip40)"
     id="g1156"><path
       style="fill:#ffffff;fill-rule:evenodd"
       inkscape:connector-curvature="0"
       d="m 171.24,71.6742 -45.088,25.8541 14.314,24.9607 c 4.298,7.496 9.505,12.006 15.621,13.529 6.116,1.523 12.705,0.259 19.769,-3.792 7.064,-4.05 11.509,-9.139 13.338,-15.267 1.828,-6.129 0.614,-12.903 -3.641,-20.3239 z m 7.727,-56.8733 36.944,64.4263 c 11.132,19.414 15.531,37.0618 13.195,52.9438 -2.335,15.881 -11.365,28.33 -27.09,37.347 -11.381,6.527 -22.138,9.632 -32.269,9.316 -10.131,-0.317 -20.333,-4.053 -30.607,-11.211 L 92.6399,239.708 90.9516,240.676 66.7094,198.4 108.044,136.299 95.7944,114.936 37.8895,148.14 15.2591,108.675 Z"
       id="path1154" /></g></g><path
   style="fill:#ffffff;fill-rule:evenodd"
   inkscape:connector-curvature="0"
   d="m 1330.38,1672.81 -45.09,25.86 14.31,24.96 c 4.3,7.49 9.51,12 15.63,13.53 6.11,1.52 12.7,0.26 19.76,-3.79 7.07,-4.06 11.51,-9.14 13.34,-15.27 1.83,-6.13 0.62,-12.91 -3.64,-20.33 z m 7.73,-56.87 36.94,64.43 c 11.13,19.41 15.53,37.06 13.2,52.94 -2.34,15.88 -11.37,28.33 -27.09,37.35 -11.39,6.52 -22.14,9.63 -32.27,9.31 -10.14,-0.31 -20.34,-4.05 -30.61,-11.21 l -46.5,72.09 -1.69,0.96 -24.24,-42.27 41.33,-62.1 -12.25,-21.37 -57.9,33.21 -22.63,-39.47 z"
   id="path1160" /><text
   style="font-size:225.875px;font-family:Arial, Arial_MSFontService, sans-serif;fill:#000000;fill-opacity:0"
   font-size="225.875"
   x="1174.4"
   y="1813.58"
   id="text1162">R</text>
<g
   style="filter:url(#fx10)"
   clip-path="url(#clip41)"
   transform="translate(1299,1781)"
   id="g1168"><g
     clip-path="url(#clip42)"
     id="g1166"><path
       style="fill:#ffffff;fill-rule:evenodd"
       inkscape:connector-curvature="0"
       d="m 153.734,14.5043 88.19,95.8647 -25.85,23.78 -57.389,-62.3834 -29.284,26.9395 48.438,52.6539 -24.8,22.815 L 104.6,121.52 71.4055,152.057 128.619,214.25 102.864,237.943 14.8504,142.269 Z"
       id="path1164" /></g></g><path
   style="fill:#ffffff;fill-rule:evenodd"
   inkscape:connector-curvature="0"
   d="m 1447.87,1790.64 88.19,95.87 -25.85,23.78 -57.39,-62.39 -29.28,26.94 48.44,52.66 -24.8,22.81 -48.44,-52.65 -33.2,30.54 57.22,62.19 -25.76,23.69 -88.01,-95.67 z"
   id="path1170" /><text
   style="font-size:223.438px;font-family:Arial, Arial_MSFontService, sans-serif;fill:#000000;fill-opacity:0"
   font-size="223.438"
   x="1308.99"
   y="1986.15"
   id="text1172">E</text>
<g
   style="filter:url(#fx11)"
   clip-path="url(#clip43)"
   transform="translate(1458,1911)"
   id="g1178"><g
     clip-path="url(#clip44)"
     id="g1176"><path
       style="fill:#ffffff;fill-rule:evenodd"
       inkscape:connector-curvature="0"
       d="M 123.858,14.8934 230.178,90.1483 209.886,118.818 140.698,69.8459 117.71,102.324 176.107,143.658 156.638,171.164 98.2409,129.83 72.1825,166.645 141.159,215.467 120.941,244.031 14.8319,168.926 Z"
       id="path1174" /></g></g><path
   style="fill:#ffffff;fill-rule:evenodd"
   inkscape:connector-curvature="0"
   d="m 1577,1921.03 106.32,75.26 -20.3,28.67 -69.18,-48.98 -22.99,32.48 58.4,41.34 -19.47,27.5 -58.4,-41.33 -26.06,36.81 68.98,48.83 -20.22,28.56 -106.11,-75.11 z"
   id="path1180" /><text
   style="font-size:229.138px;font-family:Arial, Arial_MSFontService, sans-serif;fill:#000000;fill-opacity:0"
   font-size="229.138"
   x="1467.97"
   y="2121.53"
   id="text1182">E</text>
<g
   style="filter:url(#fx12)"
   clip-path="url(#clip45)"
   transform="translate(1646,2011)"
   id="g1188"><g
     clip-path="url(#clip46)"
     id="g1186"><path
       style="fill:#ffffff;fill-rule:evenodd"
       inkscape:connector-curvature="0"
       d="M 86.2021,15.3744 128.379,32.425 146.252,166.31 190.263,57.4426 232.32,74.4447 161.591,249.402 119.654,232.448 101.662,98.5148 57.6502,207.382 15.473,190.332 Z"
       id="path1184" /></g></g><path
   style="fill:#ffffff;fill-rule:evenodd"
   inkscape:connector-curvature="0"
   d="m 1727.34,2021.51 42.18,17.05 17.87,133.89 44.01,-108.87 42.06,17 -70.73,174.96 -41.94,-16.95 -17.99,-133.94 -44.01,108.87 -42.18,-17.05 z"
   id="path1190" /><text
   style="font-size:234.028px;font-family:Arial, Arial_MSFontService, sans-serif;fill:#000000;fill-opacity:0"
   font-size="234.028"
   x="1656.61"
   y="2226.29"
   id="text1192">N</text>
<g
   style="filter:url(#fx13)"
   clip-path="url(#clip47)"
   transform="translate(1895,2084)"
   id="g1198"><g
     clip-path="url(#clip48)"
     id="g1196"><path
       style="fill:#ffffff;fill-rule:evenodd"
       inkscape:connector-curvature="0"
       d="M 42.7115,15.4199 171.529,34.7401 166.32,69.4762 82.4919,56.9036 l -5.9018,39.3503 70.7539,10.6121 -4.998,33.326 -70.7542,-10.612 -6.69,44.606 83.5712,12.534 -5.19,34.608 -128.5619,-19.282 z"
       id="path1194" /></g></g><path
   style="fill:#ffffff;fill-rule:evenodd"
   inkscape:connector-curvature="0"
   d="m 1932.85,2094.56 128.82,19.32 -5.21,34.73 -83.83,-12.57 -5.9,39.35 70.75,10.61 -5,33.33 -70.75,-10.61 -6.69,44.6 83.57,12.54 -5.19,34.61 -128.56,-19.29 z"
   id="path1200" /><text
   style="font-size:205.907px;font-family:Arial, Arial_MSFontService, sans-serif;fill:#000000;fill-opacity:0"
   font-size="205.907"
   x="1904.86"
   y="2274.73"
   id="text1202">E</text>
<g
   style="filter:url(#fx14)"
   clip-path="url(#clip49)"
   transform="translate(2106,2097)"
   id="g1208"><g
     clip-path="url(#clip50)"
     id="g1206"><path
       style="fill:#ffffff;fill-rule:evenodd"
       inkscape:connector-curvature="0"
       d="m 83.8508,15.1832 c 13.5254,-1.0489 25.8382,0.4229 36.9372,4.4154 11.1,3.9926 19.968,10.2165 26.603,18.6719 6.636,8.4553 10.398,18.4119 11.287,29.8696 l -45.228,3.5076 c -0.595,-7.6672 -3.403,-13.4294 -8.426,-17.2865 -5.022,-3.8572 -11.5394,-5.4751 -19.5512,-4.8538 -8.0979,0.6281 -14.3559,2.9117 -18.7737,6.851 -4.4179,3.9392 -6.413,8.6656 -5.9854,14.1792 0.3742,4.8242 3.2978,8.9958 8.7707,12.5148 5.4728,3.5189 14.8755,6.863 28.208,10.0323 13.3326,3.1695 24.3636,6.8422 33.0946,11.0183 21.239,10.14 32.658,25.504 34.255,46.094 1.276,16.454 -3.925,29.857 -15.602,40.209 -11.677,10.353 -28.327,16.367 -49.9507,18.044 -15.2483,1.183 -29.2658,-0.482 -42.0523,-4.994 -12.7865,-4.511 -22.6717,-11.285 -29.6558,-20.32 -6.984,-9.035 -10.957,-19.755 -11.9191,-32.16 l 45.4863,-3.528 c 0.7817,10.08 3.964,17.308 9.5467,21.685 5.5828,4.377 14.2322,6.111 25.9484,5.202 7.4955,-0.581 13.2925,-2.655 17.3925,-6.223 4.1,-3.568 5.923,-8.281 5.468,-14.139 -0.514,-6.634 -3.262,-11.621 -8.245,-14.961 -4.982,-3.34 -13.5283,-6.534 -25.638,-9.582 C 73.7114,126.383 63.7655,123.297 55.9833,120.174 30.6746,110.09 17.2086,94.5815 15.585,73.6475 14.7766,63.2234 17.1002,53.7916 22.5557,45.3518 28.0111,36.9121 36.1233,30.043 46.8925,24.7445 57.6615,19.4459 69.981,16.2589 83.8508,15.1832 Z"
       id="path1204" /></g></g><path
   style="fill:#ffffff;fill-rule:evenodd"
   inkscape:connector-curvature="0"
   d="m 2184.99,2107.32 c 13.52,-1.05 25.84,0.42 36.94,4.42 11.1,3.99 19.96,10.21 26.6,18.67 6.64,8.45 10.4,18.41 11.29,29.87 l -45.23,3.51 c -0.6,-7.67 -3.4,-13.43 -8.43,-17.29 -5.02,-3.86 -11.54,-5.48 -19.55,-4.85 -8.1,0.62 -14.35,2.91 -18.77,6.85 -4.42,3.94 -6.42,8.66 -5.99,14.18 0.38,4.82 3.3,8.99 8.77,12.51 5.48,3.52 14.88,6.86 28.21,10.03 13.33,3.17 24.36,6.85 33.1,11.02 21.24,10.14 32.65,25.51 34.25,46.1 1.28,16.45 -3.92,29.85 -15.6,40.2 -11.68,10.36 -28.33,16.37 -49.95,18.05 -15.25,1.18 -29.27,-0.48 -42.05,-5 -12.79,-4.51 -22.68,-11.28 -29.66,-20.32 -6.98,-9.03 -10.96,-19.75 -11.92,-32.16 l 45.49,-3.52 c 0.78,10.08 3.96,17.3 9.54,21.68 5.59,4.38 14.24,6.11 25.95,5.2 7.5,-0.58 13.29,-2.65 17.39,-6.22 4.1,-3.57 5.93,-8.28 5.47,-14.14 -0.51,-6.63 -3.26,-11.62 -8.24,-14.96 -4.98,-3.34 -13.53,-6.53 -25.64,-9.58 -12.11,-3.05 -22.06,-6.13 -29.84,-9.26 -25.31,-10.08 -38.77,-25.59 -40.4,-46.52 -0.8,-10.43 1.52,-19.86 6.97,-28.3 5.46,-8.44 13.57,-15.31 24.34,-20.61 10.77,-5.3 23.09,-8.48 36.96,-9.56 z"
   id="path1210" /><text
   style="font-size:193.963px;font-family:Arial, Arial_MSFontService, sans-serif;fill:#000000;fill-opacity:0"
   font-size="193.963"
   x="2116.5701"
   y="2276.71"
   id="text1212">S</text>
<g
   style="filter:url(#fx15)"
   clip-path="url(#clip51)"
   transform="translate(2292,2038)"
   id="g1218"><g
     clip-path="url(#clip52)"
     id="g1216"><path
       style="fill:#ffffff;fill-rule:evenodd"
       inkscape:connector-curvature="0"
       d="M 14.5608,62.8307 164.748,14.619 175.484,48.0626 121.555,65.3745 168.499,211.613 125.182,225.518 78.2385,79.2794 25.2964,96.2743 Z"
       id="path1214" /></g></g><path
   style="fill:#ffffff;fill-rule:evenodd"
   inkscape:connector-curvature="0"
   d="m 2301.7,2095.97 150.19,-48.21 10.73,33.44 -53.93,17.31 46.95,146.24 -43.32,13.91 -46.94,-146.24 -52.94,16.99 z"
   id="path1220" /><text
   style="font-size:210.899px;font-family:Arial, Arial_MSFontService, sans-serif;fill:#000000;fill-opacity:0"
   font-size="210.899"
   x="2301.7"
   y="2232.29"
   id="text1222">T</text>
<g
   style="filter:url(#fx16)"
   clip-path="url(#clip53)"
   transform="translate(2489,1950)"
   id="g1228"><g
     clip-path="url(#clip54)"
     id="g1226"><path
       style="fill:#ffffff;fill-rule:evenodd"
       inkscape:connector-curvature="0"
       d="M 15.2554,78.7531 123.953,14.5543 141.816,44.7977 72.2891,85.8612 94.3698,123.247 157.535,85.9407 l 17.797,30.1323 -63.166,37.306 38.229,64.728 -39.171,23.135 z"
       id="path1224" /></g></g><path
   style="fill:#ffffff;fill-rule:evenodd"
   inkscape:connector-curvature="0"
   d="m 2499.39,2023.89 108.7,-64.2 17.86,30.25 -69.52,41.06 22.08,37.39 63.16,-37.31 17.8,30.13 -63.17,37.31 38.23,64.73 -39.17,23.13 z"
   id="path1230" /><text
   style="font-size:226.688px;font-family:Arial, Arial_MSFontService, sans-serif;fill:#000000;fill-opacity:0"
   font-size="226.688"
   x="2499.3899"
   y="2158.04"
   id="text1232">F</text>
<g
   style="filter:url(#fx17)"
   clip-path="url(#clip55)"
   transform="translate(2680,1852)"
   id="g1238"><g
     clip-path="url(#clip56)"
     id="g1236"><path
       style="fill:#ffffff;fill-rule:evenodd"
       inkscape:connector-curvature="0"
       d="M 66.7141,67.6278 97.194,128.979 126.579,101.01 Z M 14.7653,44.0674 45.7468,14.5793 226.361,103.199 l -35.394,33.688 -32.285,-17.941 -45.158,42.981 16.419,33.043 -35.2064,33.509 z"
       id="path1234" /></g></g><path
   style="fill:#ffffff;fill-rule:evenodd"
   inkscape:connector-curvature="0"
   d="m 2741.85,1914.77 30.48,61.35 29.39,-27.97 z m -51.95,-23.56 30.99,-29.49 180.61,88.62 -35.39,33.69 -32.29,-17.95 -45.16,42.99 16.42,33.04 -35.2,33.51 z"
   id="path1240" /><text
   style="font-size:213.899px;font-family:Arial, Arial_MSFontService, sans-serif;fill:#000000;fill-opacity:0"
   font-size="213.899"
   x="2689.8999"
   y="2048.8799"
   id="text1242">A</text>
<g
   style="filter:url(#fx18)"
   clip-path="url(#clip57)"
   transform="translate(2789,1666)"
   id="g1248"><g
     clip-path="url(#clip58)"
     id="g1246"><path
       style="fill:#ffffff;fill-rule:evenodd"
       inkscape:connector-curvature="0"
       d="m 68.6603,96.5059 43.7097,28.1201 15.568,-24.198 c 4.675,-7.267 6.28,-13.9656 4.817,-20.0958 -1.464,-6.1304 -5.62,-11.3984 -12.468,-15.8038 -6.848,-4.4055 -13.412,-6.0089 -19.694,-4.8101 -6.2816,1.1987 -11.7366,5.3951 -16.3649,12.5892 z M 14.6158,115.832 54.7976,53.3737 c 12.1084,-18.821 25.7492,-30.851 40.9224,-36.09 15.173,-5.2391 30.382,-2.955 45.626,6.8523 11.034,7.0987 18.743,15.2175 23.127,24.3566 4.384,9.1389 5.764,19.916 4.141,32.331 l 85.399,8.0895 1.637,1.053 -26.368,40.9849 -74.158,-8.101 -13.323,20.71 56.135,36.115 -24.614,38.259 z"
       id="path1244" /></g></g><path
   style="fill:#ffffff;fill-rule:evenodd"
   inkscape:connector-curvature="0"
   d="m 2852.8,1757.64 43.71,28.12 15.57,-24.19 c 4.67,-7.27 6.28,-13.97 4.81,-20.1 -1.46,-6.13 -5.62,-11.4 -12.46,-15.8 -6.85,-4.41 -13.42,-6.01 -19.7,-4.81 -6.28,1.2 -11.73,5.39 -16.36,12.59 z m -54.05,19.33 40.19,-62.46 c 12.1,-18.82 25.75,-30.85 40.92,-36.09 15.17,-5.24 30.38,-2.95 45.62,6.85 11.04,7.1 18.75,15.22 23.13,24.36 4.39,9.14 5.77,19.92 4.14,32.33 l 85.4,8.09 1.64,1.05 -26.37,40.99 -74.16,-8.1 -13.32,20.71 56.14,36.11 -24.62,38.26 z"
   id="path1250" /><text
   style="font-size:203.387px;font-family:Arial, Arial_MSFontService, sans-serif;fill:#000000;fill-opacity:0"
   font-size="203.387"
   x="2798.75"
   y="1853.65"
   id="text1252">R</text>
<g
   style="filter:url(#fx19)"
   clip-path="url(#clip59)"
   transform="translate(2895,1401)"
   id="g1258"><g
     clip-path="url(#clip60)"
     id="g1256"><path
       style="fill:#ffffff;fill-rule:evenodd"
       inkscape:connector-curvature="0"
       d="M 14.5603,209.367 32.7632,152.457 170.651,152.335 58.3895,72.3379 76.632,15.3042 256.375,72.7955 242.476,116.25 200.503,102.825 115.924,71.1451 l 113.995,84.3619 -9.161,28.64 -141.9554,2.631 87.3874,23.324 41.972,13.425 -13.859,43.331 z"
       id="path1254" /></g></g><path
   style="fill:#ffffff;fill-rule:evenodd"
   inkscape:connector-curvature="0"
   d="m 2904.7,1605.51 18.2,-56.91 137.89,-0.13 -112.26,-79.99 18.24,-57.04 179.74,57.49 -13.9,43.46 -41.97,-13.43 -84.58,-31.68 114,84.37 -9.16,28.64 -141.96,2.63 87.39,23.32 41.97,13.43 -13.86,43.33 z"
   id="path1260" /><text
   style="font-size:251.554px;font-family:Arial, Arial_MSFontService, sans-serif;fill:#000000;fill-opacity:0"
   font-size="251.554"
   x="2904.7"
   y="1631.55"
   id="text1262">M</text>
<path
   style="fill:#284b22;fill-rule:evenodd"
   inkscape:connector-curvature="0"
   d="m 2781.78,1572.71 c 37.99,-19.22 98.1,-23.85 98.1,-23.85 0,0 -60.11,-4.69 -98.08,-23.86 -50.5,-25.56 -85.14,-17.29 -85.14,-17.29 11.59,-7.41 34.64,-8.25 34.64,-8.25 -41.87,-21.43 -121.19,-14.64 -121.19,-14.64 10.09,-7.22 44.73,-9.26 44.73,-9.26 -80.8,-23.86 -157.26,2.48 -157.26,2.48 8.28,-13.85 25.61,-21.04 25.61,-21.04 -82.59,-7.43 -147.15,22.32 -147.15,22.32 7.4,-11.93 24.85,-27.36 24.85,-27.36 -20.83,1.81 -41.36,6.29 -61.1,13.34 1.83,-1.55 3.87,-2.78 5.63,-4.45 0,0 -25.4,-3.41 -35.04,-13.24 0,0 76.21,-12.91 143.96,-72.3 0,0 -28.93,2.3 -45.93,-1.56 0,0 83.39,-32.72 150.62,-115.1 0,0 -21.69,9.45 -41.09,4.72 0,0 91.12,-46.62 142.48,-142.06 0,0 -32.65,29.96 -47.91,32.79 0,0 76.66,-66.75 95.4,-124.24 0,0 -21.31,20.45 -38.11,24.4 0,0 38.11,-24.4 60.92,-93.508 17.23,-52.003 66.78,-111.316 66.78,-111.316 0,0 -57.67,50.964 -108.23,68.685 -67.2,23.531 -90.93,62.653 -90.93,62.653 3.86,-17.21 23.73,-39.191 23.73,-39.191 -55.9,19.272 -120.8,98.107 -120.8,98.107 2.75,-15.69 31.86,-49.273 31.86,-49.273 -92.78,52.823 -138.11,146.533 -138.11,146.533 -4.6,-19.95 4.59,-42.25 4.59,-42.25 -80.15,69.04 -111.88,154.8 -111.88,154.8 -3.78,-17.48 -1.54,-47.23 -1.54,-47.23 -23,28.07 -41.38,59.82 -54.43,93.98 0.25,-2.66 0.57,-5.3 0.67,-7.99 0,0 -23.2,18.42 -38.71,18.42 0,0 51.36,-73.76 59.5,-177.99 0,0 -21.54,25.9 -38.32,36.89 0,0 41.65,-95.67 31.26,-218.101 0,0 -10.09,25.661 -29.47,37.963 0,0 36.93,-113.293 3.46,-233.044 0,0 -2.85,51.322 -12.97,66.282 0,0 9.51,-117.57 -20.51,-179.592 0,0 -1.16,34.214 -11.6,51.305 0,0 11.6,-51.305 -24.24,-126.09 -26.87,-56.331 -33.5,-145.395 -33.5,-145.395 0,0 -6.63,89.064 -33.48,145.361 -35.77,74.836 -24.23,126.089 -24.23,126.089 -10.4,-17.039 -11.59,-51.304 -11.59,-51.304 -30.04,62.005 -20.53,179.592 -20.53,179.592 -10.12,-14.96 -12.97,-66.282 -12.97,-66.282 -33.47,119.751 3.48,233.044 3.48,233.044 -19.4,-12.302 -29.49,-37.963 -29.49,-37.963 -10.39,122.405 31.28,218.105 31.28,218.105 -16.79,-10.99 -38.34,-36.89 -38.34,-36.89 8.18,104.26 59.66,178.02 59.66,178.02 -15.59,0 -38.7,-18.42 -38.7,-18.42 0,2.51 0.31,4.72 0.33,7.16 -13.03,-33.86 -31.3,-65.31 -54.11,-93.15 0,0 2.25,29.75 -1.53,47.23 0,0 -31.79,-85.76 -111.91,-154.91 0,0 9.21,22.31 4.6,42.26 0,0 -45.33,-93.71 -138.12,-146.535 0,0 29.12,33.585 31.86,49.275 0,0 -64.9,-78.838 -120.8,-98.109 0,0 19.88,21.913 23.74,39.19 0,0 -23.74,-39.19 -90.94,-62.652 -50.55,-17.721 -108.22,-68.685 -108.22,-68.685 0,0 49.56,59.313 66.77,111.316 22.9,69.11 60.92,93.51 60.92,93.51 -16.75,-4.02 -38.06,-24.47 -38.06,-24.47 18.79,57.56 95.4,124.39 95.4,124.39 -15.28,-2.83 -47.93,-32.78 -47.93,-32.78 51.36,95.41 142.48,142.05 142.48,142.05 -19.4,4.74 -41.09,-4.72 -41.09,-4.72 67.25,82.38 150.62,115.1 150.62,115.1 -17,3.87 -45.92,1.57 -45.92,1.57 67.73,59.38 143.97,72.29 143.97,72.29 -9.71,9.78 -35.12,13.19 -35.12,13.19 1.75,1.71 3.79,2.9 5.63,4.45 -19.74,-7.04 -40.26,-11.52 -61.09,-13.34 0,0 17.48,15.33 24.86,27.36 0,0 -64.62,-29.75 -147.18,-22.32 0,0 17.32,7.19 25.62,21.05 0,0 -76.46,-26.38 -157.26,-2.49 0,0 34.64,2.04 44.73,9.27 0,0 -79.34,-6.82 -121.19,14.63 0,0 23.08,0.84 34.62,8.25 0,0 -34.62,-8.25 -85.12,17.3 -37.99,19.22 -98.1,23.85 -98.1,23.85 0,0 60.11,4.69 98.1,23.85 50.5,25.56 85.12,17.28 85.12,17.28 -11.59,7.45 -34.62,8.27 -34.62,8.27 41.85,21.41 121.19,14.63 121.19,14.63 -10.11,7.23 -44.73,9.26 -44.73,9.26 80.8,23.85 157.26,-2.48 157.26,-2.48 -8.29,13.84 -25.62,21.03 -25.62,21.03 82.68,7.58 147.29,-22.24 147.29,-22.24 -7.4,11.93 -24.85,27.37 -24.85,27.37 70.35,-5.76 120.12,-42.48 120.12,-42.48 0,11.11 -12.43,27.62 -12.43,27.62 4.22,-0.28 8.41,-0.85 12.56,-1.7 -4.82,3.36 -9.46,6.99 -13.9,10.87 0,0 15.21,-1.21 24.14,0.82 0,0 -43.84,17.19 -79.18,60.5 0,0 11.38,-4.97 21.54,-2.49 0,0 -47.88,24.52 -74.89,74.69 0,0 17.17,-15.75 25.19,-17.21 0,0 -40.3,35.08 -50.15,65.31 0,0 11.2,-10.75 20.01,-12.83 0,0 -20.01,12.83 -32.04,49.16 -9.07,27.26 -35.13,58.53 -35.13,58.53 0,0 30.34,-26.79 56.93,-36.11 35.32,-12.37 47.8,-32.94 47.8,-32.94 -2.02,9.05 -12.48,20.57 -12.48,20.57 29.39,-10.22 63.51,-51.6 63.51,-51.6 -1.43,8.27 -16.75,25.92 -16.75,25.92 48.79,-27.77 72.63,-77.02 72.63,-77.02 2.4,10.5 -2.42,22.16 -2.42,22.16 42.05,-36.28 58.78,-81.38 58.78,-81.38 1.99,9.18 0.8,24.82 0.8,24.82 18.38,-22.42 31.08,-49.16 36.96,-77.85 5.07,5.21 6.78,18.96 6.78,18.96 21.82,-24.19 21.97,-62.44 27.17,-81.31 2.5,-9.01 5.71,-17.81 9.58,-26.3 l -10.24,491.44 h 37.03 l -10.33,-491.41 c 3.87,8.49 7.08,17.29 9.58,26.31 5.33,18.86 5.33,57.11 27.24,81.26 0,0 1.65,-13.75 6.76,-18.97 5.88,28.69 18.58,55.43 36.96,77.86 0,0 -1.18,-15.65 0.8,-24.83 0,0 16.73,45.07 58.84,81.43 0,0 -4.83,-11.72 -2.41,-22.15 0,0 23.84,49.24 72.61,77.02 0,0 -15.31,-17.66 -16.75,-25.92 0,0 34.11,41.45 63.52,51.59 0,0 -10.45,-11.52 -12.47,-20.56 0,0 12.47,20.56 47.8,32.93 26.5,9.32 56.91,36.11 56.91,36.11 0,0 -26.07,-31.18 -35.11,-58.53 -12.03,-36.33 -32.04,-49.16 -32.04,-49.16 8.79,2.08 20.01,12.83 20.01,12.83 -9.86,-30.23 -50.17,-65.31 -50.17,-65.31 8.02,1.47 25.2,17.21 25.2,17.21 -27,-50.16 -74.88,-74.68 -74.88,-74.68 10.2,-2.49 21.53,2.49 21.53,2.49 -35.35,-43.32 -79.19,-60.51 -79.19,-60.51 8.95,-2.03 24.16,-0.82 24.16,-0.82 -4.44,-3.88 -9.08,-7.5 -13.9,-10.87 4.13,0.85 8.32,1.42 12.54,1.71 0,0 -12.43,-16.52 -12.43,-27.63 0,0 49.71,36.72 120.12,42.48 0,0 -17.48,-15.33 -24.85,-27.36 0,0 64.61,29.73 147.14,22.3 0,0 -17.3,-7.19 -25.6,-21.02 0,0 76.46,26.36 157.26,2.47 0,0 -34.63,-2.03 -44.73,-9.26 0,0 79.36,6.82 121.21,-14.63 0,0 -23.1,-0.82 -34.65,-8.27 0.04,-0.03 34.68,8.23 85.16,-17.31 z"
   id="path1264" /><path
   style="fill:#ffffff;fill-rule:evenodd"
   inkscape:connector-curvature="0"
   d="m 3209.83,1157.58 c 6.26,-3.15 16.15,-3.92 16.15,-3.92 0,0 -9.89,-0.77 -16.14,-3.92 -8.31,-4.2 -14.02,-2.84 -14.02,-2.84 1.91,-1.22 5.71,-1.35 5.71,-1.35 -6.9,-3.53 -19.95,-2.41 -19.95,-2.41 1.66,-1.19 7.36,-1.52 7.36,-1.52 -13.3,-3.92 -25.88,0.41 -25.88,0.41 1.36,-2.28 4.21,-3.46 4.21,-3.46 -13.59,-1.22 -24.22,3.67 -24.22,3.67 1.22,-1.96 4.09,-4.5 4.09,-4.5 -3.42,0.3 -6.8,1.04 -10.05,2.19 0.3,-0.25 0.63,-0.45 0.92,-0.73 0,0 -4.18,-0.56 -5.76,-2.17 0,0 12.54,-2.13 23.69,-11.88 0,0 -4.76,0.37 -7.56,-0.26 0,0 13.73,-5.38 24.79,-18.91 0,0 -3.57,1.55 -6.76,0.77 0,0 15,-7.66 23.45,-23.34 0,0 -5.37,4.92 -7.89,5.38 0,0 12.62,-10.96 15.71,-20.41 0,0 -3.51,3.36 -6.28,4.01 0,0 6.28,-4.01 10.03,-15.37 2.84,-8.54 10.99,-18.29 10.99,-18.29 0,0 -9.49,8.38 -17.81,11.29 -11.06,3.86 -14.97,10.29 -14.97,10.29 0.64,-2.82 3.91,-6.44 3.91,-6.44 -9.2,3.17 -19.88,16.13 -19.88,16.13 0.45,-2.58 5.24,-8.1 5.24,-8.1 -15.27,8.68 -22.73,24.08 -22.73,24.08 -0.76,-3.28 0.75,-6.95 0.75,-6.95 -13.19,11.35 -18.41,25.44 -18.41,25.44 -0.62,-2.87 -0.26,-7.76 -0.26,-7.76 -3.78,4.61 -6.81,9.83 -8.95,15.44 0.04,-0.43 0.09,-0.87 0.11,-1.31 0,0 -3.82,3.03 -6.37,3.03 0,0 8.45,-12.12 9.79,-29.25 0,0 -3.55,4.26 -6.31,6.06 0,0 6.86,-15.72 5.15,-35.84 0,0 -1.66,4.22 -4.85,6.24 0,0 6.07,-18.62 0.57,-38.29 0,0 -0.47,8.43 -2.14,10.89 0,0 1.57,-19.32 -3.38,-29.51 0,0 -0.19,5.62 -1.9,8.43 0,0 1.9,-8.43 -3.99,-20.723 -4.43,-9.257 -5.52,-23.892 -5.52,-23.892 0,0 -1.09,14.635 -5.51,23.886 -5.89,12.299 -3.99,20.719 -3.99,20.719 -1.71,-2.8 -1.9,-8.43 -1.9,-8.43 -4.95,10.19 -3.38,29.51 -3.38,29.51 -1.67,-2.46 -2.14,-10.89 -2.14,-10.89 -5.51,19.68 0.57,38.3 0.57,38.3 -3.19,-2.03 -4.85,-6.24 -4.85,-6.24 -1.71,20.11 5.15,35.84 5.15,35.84 -2.76,-1.81 -6.31,-6.07 -6.31,-6.07 1.35,17.14 9.82,29.26 9.82,29.26 -2.57,0 -6.37,-3.03 -6.37,-3.03 0,0.41 0.05,0.78 0.05,1.18 -2.14,-5.57 -5.15,-10.74 -8.9,-15.31 0,0 0.37,4.89 -0.25,7.76 0,0 -5.24,-14.09 -18.42,-25.45 0,0 1.51,3.66 0.75,6.94 0,0 -7.46,-15.4 -22.73,-24.08 0,0 4.79,5.52 5.24,8.1 0,0 -10.68,-12.96 -19.88,-16.12 0,0 3.27,3.6 3.91,6.44 0,0 -3.91,-6.44 -14.97,-10.3 -8.32,-2.91 -17.81,-11.29 -17.81,-11.29 0,0 8.16,9.75 10.99,18.3 3.77,11.35 10.03,15.36 10.03,15.36 -2.76,-0.66 -6.27,-4.02 -6.27,-4.02 3.09,9.46 15.7,20.44 15.7,20.44 -2.51,-0.46 -7.89,-5.39 -7.89,-5.39 8.46,15.68 23.46,23.35 23.46,23.35 -3.2,0.78 -6.77,-0.78 -6.77,-0.78 11.07,13.54 24.79,18.92 24.79,18.92 -2.79,0.63 -7.56,0.25 -7.56,0.25 11.15,9.76 23.7,11.88 23.7,11.88 -1.6,1.61 -5.78,2.17 -5.78,2.17 0.29,0.28 0.62,0.48 0.93,0.73 -3.25,-1.16 -6.63,-1.89 -10.06,-2.19 0,0 2.88,2.52 4.09,4.5 0,0 -10.63,-4.89 -24.22,-3.67 0,0 2.85,1.18 4.22,3.46 0,0 -12.59,-4.34 -25.89,-0.41 0,0 5.7,0.33 7.37,1.52 0,0 -13.06,-1.12 -19.95,2.41 0,0 3.8,0.13 5.7,1.35 0,0 -5.7,-1.35 -14.01,2.84 -6.26,3.16 -16.15,3.92 -16.15,3.92 0,0 9.89,0.77 16.15,3.92 8.31,4.2 14.01,2.84 14.01,2.84 -1.91,1.23 -5.7,1.36 -5.7,1.36 6.89,3.52 19.95,2.41 19.95,2.41 -1.67,1.18 -7.37,1.52 -7.37,1.52 13.3,3.92 25.89,-0.41 25.89,-0.41 -1.37,2.27 -4.22,3.45 -4.22,3.45 13.61,1.25 24.24,-3.65 24.24,-3.65 -1.22,1.96 -4.09,4.5 -4.09,4.5 11.58,-0.95 19.77,-6.98 19.77,-6.98 0,1.82 -2.04,4.54 -2.04,4.54 0.69,-0.05 1.38,-0.14 2.06,-0.28 -0.79,0.55 -1.55,1.14 -2.28,1.78 0,0 2.5,-0.2 3.97,0.14 0,0 -7.22,2.82 -13.03,9.94 0,0 1.87,-0.82 3.54,-0.41 0,0 -7.88,4.03 -12.32,12.27 0,0 2.82,-2.58 4.14,-2.83 0,0 -6.63,5.77 -8.25,10.74 0,0 1.84,-1.77 3.29,-2.11 0,0 -3.29,2.11 -5.27,8.08 -1.49,4.48 -5.78,9.61 -5.78,9.61 0,0 4.99,-4.4 9.37,-5.93 5.81,-2.03 7.86,-5.41 7.86,-5.41 -0.33,1.49 -2.05,3.38 -2.05,3.38 4.84,-1.68 10.45,-8.48 10.45,-8.48 -0.23,1.36 -2.75,4.26 -2.75,4.26 8.03,-4.57 11.95,-12.66 11.95,-12.66 0.4,1.73 -0.4,3.64 -0.4,3.64 6.92,-5.96 9.68,-13.37 9.68,-13.37 0.32,1.51 0.13,4.08 0.13,4.08 3.02,-3.68 5.11,-8.08 6.08,-12.79 0.84,0.85 1.12,3.11 1.12,3.11 3.59,-3.97 3.61,-10.26 4.47,-13.36 0.41,-1.48 0.94,-2.93 1.58,-4.32 l -1.69,80.76 h 6.09 l -1.69,-80.76 c 0.63,1.4 1.16,2.85 1.57,4.33 0.88,3.1 0.88,9.38 4.48,13.35 0,0 0.28,-2.26 1.12,-3.12 0.97,4.72 3.06,9.11 6.08,12.8 0,0 -0.19,-2.57 0.13,-4.08 0,0 2.76,7.4 9.69,13.38 0,0 -0.8,-1.93 -0.4,-3.64 0,0 3.92,8.09 11.95,12.65 0,0 -2.52,-2.9 -2.76,-4.25 0,0 5.62,6.81 10.46,8.47 0,0 -1.72,-1.89 -2.05,-3.38 0,0 2.05,3.38 7.86,5.42 4.37,1.53 9.37,5.93 9.37,5.93 0,0 -4.29,-5.12 -5.78,-9.62 -1.98,-5.97 -5.27,-8.08 -5.27,-8.08 1.45,0.35 3.29,2.11 3.29,2.11 -1.62,-4.96 -8.25,-10.73 -8.25,-10.73 1.32,0.24 4.14,2.83 4.14,2.83 -4.44,-8.24 -12.32,-12.27 -12.32,-12.27 1.68,-0.41 3.54,0.4 3.54,0.4 -5.82,-7.11 -13.03,-9.94 -13.03,-9.94 1.47,-0.33 3.97,-0.13 3.97,-0.13 -0.73,-0.64 -1.49,-1.24 -2.28,-1.79 0.68,0.14 1.37,0.23 2.06,0.28 0,0 -2.05,-2.71 -2.05,-4.54 0,0 8.19,6.04 19.78,6.98 0,0 -2.88,-2.52 -4.1,-4.49 0,0 10.64,4.88 24.22,3.66 0,0 -2.84,-1.18 -4.21,-3.45 0,0 12.58,4.33 25.88,0.4 0,0 -5.7,-0.33 -7.36,-1.52 0,0 13.06,1.12 19.95,-2.4 0,0 -3.8,-0.14 -5.7,-1.36 0,-0.01 5.71,1.35 14.01,-2.85 z"
   id="path1266" /><path
   style="fill:#ffffff;fill-rule:evenodd"
   inkscape:connector-curvature="0"
   d="m 1242.83,1157.58 c 6.26,-3.15 16.15,-3.92 16.15,-3.92 0,0 -9.89,-0.77 -16.14,-3.92 -8.31,-4.2 -14.02,-2.84 -14.02,-2.84 1.91,-1.22 5.71,-1.35 5.71,-1.35 -6.9,-3.53 -19.95,-2.41 -19.95,-2.41 1.66,-1.19 7.36,-1.52 7.36,-1.52 -13.3,-3.92 -25.88,0.41 -25.88,0.41 1.36,-2.28 4.21,-3.46 4.21,-3.46 -13.59,-1.22 -24.22,3.67 -24.22,3.67 1.22,-1.96 4.09,-4.5 4.09,-4.5 -3.43,0.3 -6.8,1.04 -10.05,2.19 0.3,-0.25 0.63,-0.45 0.92,-0.73 0,0 -4.18,-0.56 -5.76,-2.17 0,0 12.54,-2.13 23.69,-11.88 0,0 -4.76,0.37 -7.56,-0.26 0,0 13.73,-5.38 24.79,-18.91 0,0 -3.57,1.55 -6.76,0.77 0,0 15,-7.66 23.45,-23.34 0,0 -5.37,4.92 -7.89,5.38 0,0 12.62,-10.96 15.71,-20.41 0,0 -3.51,3.36 -6.28,4.01 0,0 6.28,-4.01 10.03,-15.37 2.84,-8.54 10.99,-18.29 10.99,-18.29 0,0 -9.49,8.38 -17.81,11.29 -11.06,3.86 -14.97,10.29 -14.97,10.29 0.64,-2.82 3.91,-6.44 3.91,-6.44 -9.2,3.17 -19.88,16.13 -19.88,16.13 0.45,-2.58 5.24,-8.1 5.24,-8.1 -15.27,8.68 -22.73,24.08 -22.73,24.08 -0.76,-3.28 0.75,-6.95 0.75,-6.95 -13.19,11.35 -18.41,25.44 -18.41,25.44 -0.62,-2.87 -0.26,-7.76 -0.26,-7.76 -3.78,4.61 -6.81,9.83 -8.95,15.44 0.04,-0.43 0.09,-0.87 0.11,-1.31 0,0 -3.82,3.03 -6.37,3.03 0,0 8.45,-12.12 9.79,-29.25 0,0 -3.55,4.26 -6.31,6.06 0,0 6.86,-15.72 5.15,-35.84 0,0 -1.66,4.22 -4.85,6.24 0,0 6.07,-18.62 0.57,-38.29 0,0 -0.47,8.43 -2.14,10.89 0,0 1.57,-19.32 -3.38,-29.51 0,0 -0.19,5.62 -1.9,8.43 0,0 1.9,-8.43 -3.99,-20.723 -4.43,-9.257 -5.52,-23.892 -5.52,-23.892 0,0 -1.09,14.635 -5.51,23.886 -5.89,12.299 -3.99,20.719 -3.99,20.719 -1.71,-2.8 -1.9,-8.43 -1.9,-8.43 -4.95,10.19 -3.38,29.51 -3.38,29.51 -1.67,-2.46 -2.14,-10.89 -2.14,-10.89 -5.51,19.68 0.57,38.3 0.57,38.3 -3.19,-2.03 -4.85,-6.24 -4.85,-6.24 -1.71,20.11 5.15,35.84 5.15,35.84 -2.76,-1.81 -6.31,-6.07 -6.31,-6.07 1.35,17.14 9.82,29.26 9.82,29.26 -2.57,0 -6.37,-3.03 -6.37,-3.03 0,0.41 0.05,0.78 0.05,1.18 -2.14,-5.57 -5.15,-10.74 -8.9,-15.31 0,0 0.37,4.89 -0.25,7.76 0,0 -5.24,-14.09 -18.42,-25.45 0,0 1.51,3.66 0.75,6.94 0,0 -7.46,-15.4 -22.73,-24.08 0,0 4.79,5.52 5.24,8.1 0,0 -10.68,-12.96 -19.88,-16.12 0,0 3.27,3.6 3.91,6.44 0,0 -3.91,-6.44 -14.97,-10.3 -8.32,-2.91 -17.81,-11.29 -17.81,-11.29 0,0 8.16,9.75 10.99,18.3 3.77,11.35 10.03,15.36 10.03,15.36 -2.76,-0.66 -6.27,-4.02 -6.27,-4.02 3.09,9.46 15.7,20.44 15.7,20.44 -2.51,-0.46 -7.89,-5.39 -7.89,-5.39 8.46,15.68 23.46,23.35 23.46,23.35 -3.2,0.78 -6.77,-0.78 -6.77,-0.78 11.07,13.54 24.79,18.92 24.79,18.92 -2.79,0.63 -7.56,0.25 -7.56,0.25 11.15,9.76 23.7,11.88 23.7,11.88 -1.6,1.61 -5.78,2.17 -5.78,2.17 0.29,0.28 0.62,0.48 0.93,0.73 -3.25,-1.16 -6.63,-1.89 -10.06,-2.19 0,0 2.88,2.52 4.09,4.5 0,0 -10.63,-4.89 -24.22,-3.67 0,0 2.85,1.18 4.22,3.46 0,0 -12.59,-4.34 -25.89,-0.41 0,0 5.7,0.33 7.36,1.52 0,0 -13.05,-1.12 -19.94,2.41 0,0 3.8,0.13 5.7,1.35 0,0 -5.7,-1.35 -14.01,2.84 -6.26,3.16 -16.15,3.92 -16.15,3.92 0,0 9.89,0.77 16.15,3.92 8.31,4.2 14.01,2.84 14.01,2.84 -1.91,1.23 -5.7,1.36 -5.7,1.36 6.89,3.52 19.94,2.41 19.94,2.41 -1.66,1.18 -7.36,1.52 -7.36,1.52 13.3,3.92 25.89,-0.41 25.89,-0.41 -1.37,2.27 -4.22,3.45 -4.22,3.45 13.61,1.25 24.24,-3.65 24.24,-3.65 -1.22,1.96 -4.09,4.5 -4.09,4.5 11.58,-0.95 19.77,-6.98 19.77,-6.98 0,1.82 -2.04,4.54 -2.04,4.54 0.69,-0.05 1.38,-0.14 2.06,-0.28 -0.79,0.55 -1.55,1.14 -2.28,1.78 0,0 2.5,-0.2 3.97,0.14 0,0 -7.22,2.82 -13.03,9.94 0,0 1.87,-0.82 3.54,-0.41 0,0 -7.88,4.03 -12.32,12.27 0,0 2.82,-2.58 4.14,-2.83 0,0 -6.63,5.77 -8.25,10.74 0,0 1.84,-1.77 3.29,-2.11 0,0 -3.29,2.11 -5.27,8.08 -1.49,4.48 -5.78,9.61 -5.78,9.61 0,0 4.99,-4.4 9.37,-5.93 5.81,-2.03 7.86,-5.41 7.86,-5.41 -0.33,1.49 -2.05,3.38 -2.05,3.38 4.84,-1.68 10.45,-8.48 10.45,-8.48 -0.23,1.36 -2.75,4.26 -2.75,4.26 8.03,-4.57 11.95,-12.66 11.95,-12.66 0.4,1.73 -0.4,3.64 -0.4,3.64 6.92,-5.96 9.68,-13.37 9.68,-13.37 0.32,1.51 0.13,4.08 0.13,4.08 3.02,-3.68 5.11,-8.08 6.08,-12.79 0.84,0.85 1.12,3.11 1.12,3.11 3.59,-3.97 3.61,-10.26 4.47,-13.36 0.41,-1.48 0.94,-2.93 1.57,-4.32 l -1.68,80.76 h 6.09 l -1.69,-80.76 c 0.63,1.4 1.16,2.85 1.57,4.33 0.88,3.1 0.88,9.38 4.48,13.35 0,0 0.28,-2.26 1.12,-3.12 0.97,4.72 3.06,9.11 6.08,12.8 0,0 -0.19,-2.57 0.13,-4.08 0,0 2.76,7.4 9.69,13.38 0,0 -0.8,-1.93 -0.4,-3.64 0,0 3.92,8.09 11.95,12.65 0,0 -2.52,-2.9 -2.76,-4.25 0,0 5.62,6.81 10.46,8.47 0,0 -1.72,-1.89 -2.05,-3.38 0,0 2.05,3.38 7.86,5.42 4.37,1.53 9.37,5.93 9.37,5.93 0,0 -4.29,-5.12 -5.78,-9.62 -1.98,-5.97 -5.27,-8.08 -5.27,-8.08 1.45,0.35 3.29,2.11 3.29,2.11 -1.62,-4.96 -8.25,-10.73 -8.25,-10.73 1.32,0.24 4.14,2.83 4.14,2.83 -4.44,-8.24 -12.32,-12.27 -12.32,-12.27 1.68,-0.41 3.54,0.4 3.54,0.4 -5.82,-7.11 -13.03,-9.94 -13.03,-9.94 1.47,-0.33 3.97,-0.13 3.97,-0.13 -0.73,-0.64 -1.49,-1.24 -2.28,-1.79 0.68,0.14 1.37,0.23 2.06,0.28 0,0 -2.05,-2.71 -2.05,-4.54 0,0 8.19,6.04 19.77,6.98 0,0 -2.87,-2.52 -4.09,-4.49 0,0 10.64,4.88 24.22,3.66 0,0 -2.84,-1.18 -4.21,-3.45 0,0 12.58,4.33 25.88,0.4 0,0 -5.7,-0.33 -7.36,-1.52 0,0 13.06,1.12 19.95,-2.4 0,0 -3.8,-0.14 -5.7,-1.36 0,-0.01 5.71,1.35 14.01,-2.85 z"
   id="path1268" /></g></svg>
