<?xml version="1.0" encoding="utf-8"?>
<!-- Generator: Adobe Illustrator 24.1.0, SVG Export Plug-In . SVG Version: 6.00 Build 0)  -->
<svg version="1.1" id="Layer_1" xmlns="http://www.w3.org/2000/svg" xmlns:xlink="http://www.w3.org/1999/xlink" x="0px" y="0px"
	 viewBox="0 0 32 37" style="enable-background:new 0 0 32 37;" xml:space="preserve">
<style type="text/css">
	.st0{display:none;fill:#66666B;}
	.st1{fill-rule:evenodd;clip-rule:evenodd;fill:#66666B;}
</style>
<path class="st0" d="M19.2,14.3c1.6-1.6,4.4-1.8,5.6-1.9c0,1.3-0.3,4-2.1,5.6c-1.6,1.6-4.4,1.8-5.7,1.9
	C17.2,18.7,17.6,15.9,19.2,14.3z M7,31.5c-2.6-2.6-3-6.8-3-8.4c1.6,0,5.9,0.2,8.5,2.7c2.6,2.6,3,6.8,3,8.4
	C13.9,34.3,9.6,34.1,7,31.5z M15.5,20.1c-1.3-0.1-4-0.3-5.6-2.1c-1.6-1.6-1.8-4.4-1.9-5.6c1.3,0,4,0.3,5.6,2.1
	c1.4,1.5,1.8,3.7,1.8,5.1L15.5,20.1L15.5,20.1z M14.5,5.9c0-1.6,1.1-3.1,1.7-3.9c0.7,0.7,1.8,2.2,1.8,3.8c0,1.6-1.1,3.1-1.8,3.9
	C15.7,8.9,14.5,7.4,14.5,5.9z M17.2,34.2c0-1.6,0.3-5.9,3-8.4c2.6-2.6,6.8-2.7,8.5-2.7c0,1.7-0.3,5.9-3,8.4
	C23.1,34.1,18.9,34.3,17.2,34.2z M0,36.8h32v-1.6h-9.3c1.5-0.5,3-1.2,4.2-2.4c3.9-3.7,3.5-10.1,3.5-10.5c0-0.4-0.3-0.7-0.7-0.7
	c-0.2,0-6.7-0.6-10.6,3.1c-0.7,0.7-1.3,1.6-1.8,2.5v-5.6c1.5,0,4.7-0.2,6.8-2.3c2.8-2.7,2.6-7.4,2.6-7.6c0-0.4-0.3-0.7-0.7-0.7
	c-0.2,0-4.9-0.4-7.7,2.3c-0.3,0.3-0.7,0.7-0.9,1.1v-3.1C18,10.6,20,8.4,20,5.8c0-3.1-2.9-5.5-3-5.6c-0.3-0.2-0.7-0.2-1.1,0
	C15.8,0.3,13,2.7,13,5.9c0,2.5,1.8,4.5,2.6,5.3V14c-0.2-0.2-0.4-0.6-0.7-0.8c-2.7-2.8-7.4-2.6-7.6-2.6c-0.4,0-0.7,0.3-0.7,0.7
	c0,0.2-0.4,4.9,2.3,7.7c2.1,2.1,5.3,2.5,6.8,2.6v5.4c-0.5-0.9-1.1-1.7-1.8-2.5c-3.9-3.7-10.3-3.1-10.6-3.1c-0.4,0.1-0.7,0.3-0.7,0.7
	c0,0.2-0.4,6.8,3.5,10.5c1.2,1.2,2.7,1.9,4.2,2.4H0V36.8z"/>
<g>
	<path class="st1" d="M30,25.3c0.9-0.3,2-0.5,2-0.5s-1.2-0.2-2-0.5c-1-0.5-1.9-0.3-1.9-0.3c0.2-0.2,0.7-0.2,0.7-0.2
		c-0.9-0.5-2.6-0.3-2.6-0.3c0.2-0.2,1-0.2,1-0.2c-1.7-0.5-3.4,0-3.4,0c0.2-0.3,0.5-0.5,0.5-0.5c-1.7-0.2-3.1,0.5-3.1,0.5
		c0.2-0.2,0.5-0.5,0.5-0.5c-0.5,0-0.9,0.2-1.4,0.3c0,0,0,0,0.2-0.2c0,0-0.5,0-0.7-0.3c0,0,1.5-0.3,3.1-1.5c0,0-0.7,0-1,0
		c0,0,1.7-0.7,3.2-2.4c0,0-0.5,0.2-0.9,0.2c0,0,1.9-1,3.1-3.1c0,0-0.7,0.7-1,0.7c0,0,1.7-1.4,2-2.6c0,0-0.5,0.5-0.9,0.5
		c0,0,0.9-0.5,1.4-2c0.3-1,1.4-2.4,1.4-2.4s-1.2,1-2.2,1.5c-1.4,0.5-1.9,1.4-1.9,1.4c0-0.3,0.5-0.9,0.5-0.9c-1.2,0.3-2.6,2-2.6,2
		c0-0.3,0.7-1,0.7-1c-2,1.2-2.9,3.1-2.9,3.1c-0.2-0.3,0.2-0.9,0.2-0.9c-1.7,1.5-2.4,3.2-2.4,3.2c0-0.3,0-1,0-1
		c-0.5,0.5-0.9,1.2-1.2,2v-0.2c0,0-0.5,0.3-0.9,0.3c0,0,1-1.5,1.2-3.7c0,0-0.5,0.5-0.9,0.9c0,0,0.9-2,0.7-4.6c0,0-0.2,0.5-0.7,0.9
		c0,0,0.9-2.4,0-4.9c0,0,0,1-0.3,1.4c0,0,0.2-2.6-0.5-3.7c0,0,0,0.7-0.2,1c0,0,0.2-1-0.5-2.7C16,2.9,15.8,1,15.8,1s-0.2,1.9-0.7,3.1
		c-0.7,1.5-0.5,2.7-0.5,2.7c-0.2-0.3-0.2-1-0.2-1C13.8,7.1,14,9.5,14,9.5c-0.2-0.3-0.3-1.4-0.3-1.4c-0.7,2.6,0,4.9,0,4.9
		c-0.3-0.3-0.7-0.9-0.7-0.9c-0.2,2.6,0.7,4.6,0.7,4.6c-0.2-0.3-0.5-1-0.5-1c0.2,2.2,1.2,3.7,1.2,3.7c-0.3,0-0.9-0.3-0.9-0.3v0.2
		c-0.3-0.7-0.7-1.4-1.2-2c0,0,0,0.7,0,1c0,0-0.7-1.9-2.4-3.2c0,0,0.2,0.5,0.2,0.9c0,0-1-2-2.9-3.1c0,0,0.7,0.7,0.7,1
		c0,0-1.4-1.7-2.6-2c0,0,0.3,0.5,0.5,0.9c0,0-0.5-0.9-1.9-1.4c-1-0.3-2.2-1.5-2.2-1.5s1,1.2,1.4,2.4c0.5,1.5,1.4,2,1.4,2
		c-0.3,0-0.9-0.5-0.9-0.5c0.3,1.2,2,2.6,2,2.6c-0.3,0-1-0.7-1-0.7c1,2,3.1,3.1,3.1,3.1c-0.3,0.2-0.9-0.2-0.9-0.2
		c1.4,1.7,3.2,2.4,3.2,2.4c-0.3,0-1,0-1,0c1.4,1.2,3.1,1.5,3.1,1.5c-0.2,0.2-0.7,0.3-0.7,0.3s0,0,0.2,0.2c-0.3-0.2-0.9-0.2-1.4-0.3
		c0,0,0.3,0.3,0.5,0.5c0,0-1.4-0.7-3.1-0.5c0,0,0.3,0.2,0.5,0.5c0,0-1.7-0.5-3.4,0c0,0,0.7,0,1,0.2c0,0-1.7-0.2-2.6,0.3
		c0,0,0.5,0,0.7,0.2c0,0-0.7-0.2-1.9,0.3c-0.9,0.3-2,0.5-2,0.5s1.2,0.2,2,0.5c1,0.5,1.9,0.3,1.9,0.3c-0.2,0.2-0.7,0.2-0.7,0.2
		C4.1,26.2,5.8,26,5.8,26c-0.2,0.2-1,0.2-1,0.2c1.7,0.5,3.4,0,3.4,0c-0.2,0.3-0.5,0.5-0.5,0.5c1.7,0.2,3.1-0.5,3.1-0.5
		c-0.2,0.2-0.5,0.5-0.5,0.5c1.5-0.2,2.6-0.9,2.6-0.9c0,0.2-0.3,0.5-0.3,0.5c0.2,0,0.2,0,0.3,0c-0.2,0-0.2,0.2-0.3,0.2
		c0,0,0.3,0,0.5,0c0,0-0.9,0.3-1.7,1.4c0,0,0.2-0.2,0.5,0c0,0-1,0.5-1.5,1.5c0,0,0.3-0.3,0.5-0.3c0,0-0.9,0.7-1,1.4
		c0,0,0.2-0.2,0.3-0.3c0,0-0.3,0.3-0.7,1c-0.2,0.5-0.7,1.2-0.7,1.2s0.7-0.5,1.2-0.7c0.7-0.3,1-0.7,1-0.7c0,0.2-0.3,0.5-0.3,0.5
		c0.7-0.2,1.4-1,1.4-1c0,0.2-0.3,0.5-0.3,0.5c1-0.5,1.5-1.7,1.5-1.7c0,0.2,0,0.5,0,0.5c0.9-0.9,1.2-1.7,1.2-1.7c0,0.2,0,0.5,0,0.5
		c0.3-0.5,0.7-1,0.9-1.7c0.2,0.2,0.2,0.3,0.2,0.3c0.5-0.5,0.5-1.4,0.5-1.7c0-0.2,0.2-0.3,0.2-0.5l-0.2,10.4h0.9L16.5,25
		c0,0.2,0.2,0.3,0.2,0.5c0.2,0.3,0.2,1.2,0.5,1.7c0,0,0-0.3,0.2-0.3c0.2,0.7,0.3,1.2,0.9,1.7c0,0,0-0.3,0-0.5c0,0,0.3,1,1.2,1.7
		c0,0-0.2-0.2,0-0.5c0,0,0.5,1,1.5,1.7c0,0-0.3-0.3-0.3-0.5c0,0,0.7,0.9,1.4,1c0,0-0.2-0.2-0.3-0.5c0,0,0.3,0.5,1,0.7
		c0.5,0.2,1.2,0.7,1.2,0.7s-0.5-0.7-0.7-1.2c-0.2-0.9-0.7-1-0.7-1c0.2,0,0.3,0.3,0.3,0.3c-0.2-0.7-1-1.4-1-1.4
		c0.2,0,0.5,0.3,0.5,0.3c-0.5-1-1.5-1.5-1.5-1.5c0.2,0,0.5,0,0.5,0c-0.7-0.9-1.7-1.4-1.7-1.4c0.2,0,0.5,0,0.5,0
		c-0.2,0-0.2-0.2-0.3-0.2c0.2,0,0.2,0,0.3,0c0,0-0.3-0.3-0.3-0.5c0,0,1,0.9,2.6,0.9c0,0-0.3-0.3-0.5-0.5c0,0,1.4,0.7,3.1,0.5
		c0,0-0.3-0.2-0.5-0.5c0,0,1.7,0.5,3.4,0c0,0-0.7,0-1-0.2c0,0,1.7,0.2,2.6-0.3c0,0-0.5,0-0.7-0.2C28.1,25.7,28.9,25.9,30,25.3
		L30,25.3z"/>
</g>
</svg>
