<?xml version="1.0" encoding="utf-8"?>
<svg width="32" height="37" viewBox="0 0 32 37" fill="none" xmlns="http://www.w3.org/2000/svg">
  <path class="st1" d="M 30 25.3 C 30.9 25 32 24.8 32 24.8 C 32 24.8 30.8 24.6 30 24.3 C 29 23.8 28.1 24 28.1 24 C 28.3 23.8 28.8 23.8 28.8 23.8 C 27.9 23.3 26.2 23.5 26.2 23.5 C 26.4 23.3 27.2 23.3 27.2 23.3 C 25.5 22.8 23.8 23.3 23.8 23.3 C 24 23 24.3 22.8 24.3 22.8 C 22.6 22.6 21.2 23.3 21.2 23.3 C 21.4 23.1 21.7 22.8 21.7 22.8 C 21.2 22.8 20.8 23 20.3 23.1 C 20.3 23.1 20.3 23.1 20.5 22.9 C 20.5 22.9 20 22.9 19.8 22.6 C 19.8 22.6 21.3 22.3 22.9 21.1 C 22.9 21.1 22.2 21.1 21.9 21.1 C 21.9 21.1 23.6 20.4 25.1 18.7 C 25.1 18.7 24.6 18.9 24.2 18.9 C 24.2 18.9 26.1 17.9 27.3 15.8 C 27.3 15.8 26.6 16.5 26.3 16.5 C 26.3 16.5 28 15.1 28.3 13.9 C 28.3 13.9 27.8 14.4 27.4 14.4 C 27.4 14.4 28.3 13.9 28.8 12.4 C 29.1 11.4 30.2 10 30.2 10 C 30.2 10 29 11 28 11.5 C 26.6 12 26.1 12.9 26.1 12.9 C 26.1 12.6 26.6 12 26.6 12 C 25.4 12.3 24 14 24 14 C 24 13.7 24.7 13 24.7 13 C 22.7 14.2 21.8 16.1 21.8 16.1 C 21.6 15.8 22 15.2 22 15.2 C 20.3 16.7 19.6 18.4 19.6 18.4 C 19.6 18.1 19.6 17.4 19.6 17.4 C 19.1 17.9 18.7 18.6 18.4 19.4 L 18.4 19.2 C 18.4 19.2 17.9 19.5 17.5 19.5 C 17.5 19.5 18.5 18 18.7 15.8 C 18.7 15.8 18.2 16.3 17.8 16.7 C 17.8 16.7 18.7 14.7 18.5 12.1 C 18.5 12.1 18.3 12.6 17.8 13 C 17.8 13 18.7 10.6 17.8 8.1 C 17.8 8.1 17.8 9.1 17.5 9.5 C 17.5 9.5 17.7 6.9 17 5.8 C 17 5.8 17 6.5 16.8 6.8 C 16.8 6.8 17 5.8 16.3 4.1 C 16 2.9 15.8 1 15.8 1 C 15.8 1 15.6 2.9 15.1 4.1 C 14.4 5.6 14.6 6.8 14.6 6.8 C 14.4 6.5 14.4 5.8 14.4 5.8 C 13.8 7.1 14 9.5 14 9.5 C 13.8 9.2 13.7 8.1 13.7 8.1 C 13 10.7 13.7 13 13.7 13 C 13.4 12.7 13 12.1 13 12.1 C 12.8 14.7 13.7 16.7 13.7 16.7 C 13.5 16.4 13.2 15.7 13.2 15.7 C 13.4 17.9 14.4 19.4 14.4 19.4 C 14.1 19.4 13.5 19.1 13.5 19.1 L 13.5 19.3 C 13.2 18.6 12.8 17.9 12.3 17.3 C 12.3 17.3 12.3 18 12.3 18.3 C 12.3 18.3 11.6 16.4 9.9 15.1 C 9.9 15.1 10.1 15.6 10.1 16 C 10.1 16 9.1 14 7.2 12.9 C 7.2 12.9 7.9 13.6 7.9 13.9 C 7.9 13.9 6.5 12.2 5.3 11.9 C 5.3 11.9 5.6 12.4 5.8 12.8 C 5.8 12.8 5.3 11.9 3.9 11.4 C 2.9 11.1 1.7 9.9 1.7 9.9 C 1.7 9.9 2.7 11.1 3.1 12.3 C 3.6 13.8 4.5 14.3 4.5 14.3 C 4.2 14.3 3.6 13.8 3.6 13.8 C 3.9 15 5.6 16.4 5.6 16.4 C 5.3 16.4 4.6 15.7 4.6 15.7 C 5.6 17.7 7.7 18.8 7.7 18.8 C 7.4 19 6.8 18.6 6.8 18.6 C 8.2 20.3 10 21 10 21 C 9.7 21 9 21 9 21 C 10.4 22.2 12.1 22.5 12.1 22.5 C 11.9 22.7 11.4 22.8 11.4 22.8 C 11.4 22.8 11.4 22.8 11.6 23 C 11.3 22.8 10.7 22.8 10.2 22.7 C 10.2 22.7 10.5 23 10.7 23.2 C 10.7 23.2 9.3 22.5 7.6 22.7 C 7.6 22.7 7.9 22.9 8.1 23.2 C 8.1 23.2 6.4 22.7 4.7 23.2 C 4.7 23.2 5.4 23.2 5.7 23.4 C 5.7 23.4 4 23.2 3.1 23.7 C 3.1 23.7 3.6 23.7 3.8 23.9 C 3.8 23.9 3.1 23.7 1.9 24.2 C 1 24.5 -0.1 24.7 -0.1 24.7 C -0.1 24.7 1.1 24.9 1.9 25.2 C 2.9 25.7 3.8 25.5 3.8 25.5 C 3.6 25.7 3.1 25.7 3.1 25.7 C 4.1 26.2 5.8 26 5.8 26 C 5.6 26.2 4.8 26.2 4.8 26.2 C 6.5 26.7 8.2 26.2 8.2 26.2 C 8 26.5 7.7 26.7 7.7 26.7 C 9.4 26.9 10.8 26.2 10.8 26.2 C 10.6 26.4 10.3 26.7 10.3 26.7 C 11.8 26.5 12.9 25.8 12.9 25.8 C 12.9 26 12.6 26.3 12.6 26.3 C 12.8 26.3 12.8 26.3 12.9 26.3 C 12.7 26.3 12.7 26.5 12.6 26.5 C 12.6 26.5 12.9 26.5 13.1 26.5 C 13.1 26.5 12.2 26.8 11.4 27.9 C 11.4 27.9 11.6 27.7 11.9 27.9 C 11.9 27.9 10.9 28.4 10.4 29.4 C 10.4 29.4 10.7 29.1 10.9 29.1 C 10.9 29.1 10 29.8 9.9 30.5 C 9.9 30.5 10.1 30.3 10.2 30.2 C 10.2 30.2 9.9 30.5 9.5 31.2 C 9.3 31.7 8.8 32.4 8.8 32.4 C 8.8 32.4 9.5 31.9 10 31.7 C 10.7 31.4 11 31 11 31 C 11 31.2 10.7 31.5 10.7 31.5 C 11.4 31.3 12.1 30.5 12.1 30.5 C 12.1 30.7 11.8 31 11.8 31 C 12.8 30.5 13.3 29.3 13.3 29.3 C 13.3 29.5 13.3 29.8 13.3 29.8 C 14.2 28.9 14.5 28.1 14.5 28.1 C 14.5 28.3 14.5 28.6 14.5 28.6 C 14.8 28.1 15.2 27.6 15.4 26.9 C 15.6 27.1 15.6 27.2 15.6 27.2 C 16.1 26.7 16.1 25.8 16.1 25.5 C 16.1 25.3 16.3 25.2 16.3 25 L 16.1 35.4 L 17 35.4 L 16.5 25 C 16.5 25.2 16.7 25.3 16.7 25.5 C 16.9 25.8 16.9 26.7 17.2 27.2 C 17.2 27.2 17.2 26.9 17.4 26.9 C 17.6 27.6 17.7 28.1 18.3 28.6 C 18.3 28.6 18.3 28.3 18.3 28.1 C 18.3 28.1 18.6 29.1 19.5 29.8 C 19.5 29.8 19.3 29.6 19.5 29.3 C 19.5 29.3 20 30.3 21 31 C 21 31 20.7 30.7 20.7 30.5 C 20.7 30.5 21.4 31.4 22.1 31.5 C 22.1 31.5 21.9 31.3 21.8 31 C 21.8 31 22.1 31.5 22.8 31.7 C 23.3 31.9 24 32.4 24 32.4 C 24 32.4 23.5 31.7 23.3 31.2 C 23.1 30.3 22.6 30.2 22.6 30.2 C 22.8 30.2 22.9 30.5 22.9 30.5 C 22.7 29.8 21.9 29.1 21.9 29.1 C 22.1 29.1 22.4 29.4 22.4 29.4 C 21.9 28.4 20.9 27.9 20.9 27.9 C 21.1 27.9 21.4 27.9 21.4 27.9 C 20.7 27 19.7 26.5 19.7 26.5 C 19.9 26.5 20.2 26.5 20.2 26.5 C 20 26.5 20 26.3 19.9 26.3 C 20.1 26.3 20.1 26.3 20.2 26.3 C 20.2 26.3 19.9 26 19.9 25.8 C 19.9 25.8 20.9 26.7 22.5 26.7 C 22.5 26.7 22.2 26.4 22 26.2 C 22 26.2 23.4 26.9 25.1 26.7 C 25.1 26.7 24.8 26.5 24.6 26.2 C 24.6 26.2 26.3 26.7 28 26.2 C 28 26.2 27.3 26.2 27 26 C 27 26 28.7 26.2 29.6 25.7 C 29.6 25.7 29.1 25.7 28.9 25.5 C 28.1 25.7 28.9 25.9 30 25.3 L 30 25.3 Z" />
</svg>